<?xml version="1.0" encoding="utf-8"?>
<!-- Generator: Adobe Illustrator 22.0.0, SVG Export Plug-In . SVG Version: 6.00 Build 0)  -->
<svg version="1.1" id="图层_1" xmlns="http://www.w3.org/2000/svg" xmlns:xlink="http://www.w3.org/1999/xlink" x="0px" y="0px"
	 viewBox="0 0 200 200" style="enable-background:new 0 0 200 200;" xml:space="preserve">
<style type="text/css">
	.st0{fill:#333333;}
	.st1{fill:#DD231D;}
</style>
<path class="st0" d="M100.4,20.4L100.4,20.4L100.4,20.4 M99.8,20.6L167.9,43v49.9c0,26.2-9.9,48.1-29.5,65
	c-15.5,13.4-32.8,19.8-38.6,21.7c-5.8-1.9-23.1-8.3-38.6-21.7c-19.6-16.9-29.5-38.8-29.5-65V43L99.8,20.6 M99.8,10.5
	c-0.8,0-1.7,0.1-2.5,0.4l-70.1,23c-3.3,1.1-5.5,4.1-5.5,7.6v51.4c0,69,62.6,92.3,75.7,96.4c0.8,0.2,1.6,0.4,2.4,0.4s1.6-0.1,2.4-0.4
	c13.1-4.1,75.7-27.4,75.7-96.4V41.5c0-3.5-2.2-6.5-5.5-7.6l-70.1-23.1C101.5,10.6,100.6,10.5,99.8,10.5L99.8,10.5z"/>
<path class="st1" d="M92,66.6v23.8c0,1.1-0.9,2-2,2H70.4c-1.1,0-2,0.9-2,2v9.3c0,1.1,0.9,2,2,2H90c1.1,0,2,0.9,2,2v23.8
	c0,1.1,0.9,2,2,2h9.3c1.1,0,2-0.9,2-2v-23.8c0-1.1,0.9-2,2-2H127c1.1,0,2-0.9,2-2v-9.3c0-1.1-0.9-2-2-2h-19.6c-1.1,0-2-0.9-2-2V66.6
	c0-1.1-0.9-2-2-2H94C92.9,64.6,92,65.5,92,66.6z"/>
</svg>
