<?xml version="1.0" encoding="utf-8"?>
<!-- Generator: Adobe Illustrator 22.0.0, SVG Export Plug-In . SVG Version: 6.00 Build 0)  -->
<svg version="1.1" id="图层_1" xmlns="http://www.w3.org/2000/svg" xmlns:xlink="http://www.w3.org/1999/xlink" x="0px" y="0px"
	 viewBox="0 0 200 200" style="enable-background:new 0 0 200 200;" xml:space="preserve">
<style type="text/css">
	.st0{fill:#333333;}
	.st1{fill:#DD231D;}
</style>
<path class="st0" d="M100,26.3c2,0,4,0.6,5.7,1.8l60,41.3c2.7,1.9,4.3,4.9,4.3,8.2V162c0,5.5-4.5,10-10,10H40c-5.5,0-10-4.5-10-10
	V77.5c0-3.3,1.6-6.4,4.3-8.2l60-41.3C96,26.9,98,26.3,100,26.3 M100,16.3c-4,0-7.9,1.2-11.3,3.5L28.7,61c-5.4,3.7-8.7,9.9-8.7,16.5
	V162c0,11,9,20,20,20h120c11,0,20-9,20-20V77.5c0-6.6-3.2-12.7-8.7-16.5l-60-41.3C107.9,17.4,104,16.3,100,16.3L100,16.3z"/>
<path class="st1" d="M137.6,145.5l-10.2-10.2c4.6-5.4,7.6-12.4,8.1-20.1c1.2-19.1-13.3-35.4-32.3-36.7c-0.7-0.1-1.5-0.1-2.2-0.1
	c-18.1,0-33.3,14-34.4,32.4c-1.2,19.1,13.3,35.5,32.3,36.7c0.7,0.1,1.5,0.1,2.2,0.1c8.4,0,16.3-3.1,22.3-8.2l10.2,10.2
	c0.6,0.6,1.3,0.8,2.1,0.8c0.7,0,1.5-0.2,2.1-0.8C138.7,148.4,138.7,146.6,137.6,145.5z M119.7,133.1c-5.1,4.8-11.8,7.4-18.8,7.4
	c-0.6,0-1.2,0-1.7-0.1c-3.7-0.2-7.3-1.2-10.6-2.8c-3.2-1.6-6-3.7-8.3-6.4c-2.4-2.6-4.1-5.8-5.4-9.1c-1.2-3.5-1.7-7.1-1.5-10.8
	c0.4-7,3.6-13.5,8.7-18.3s11.8-7.4,18.8-7.4c0.6,0,1.2,0,1.7,0.1c3.7,0.2,7.3,1.2,10.6,2.8c3.2,1.6,6,3.7,8.3,6.4
	c2.4,2.6,4.1,5.8,5.4,9.1c1.2,3.5,1.7,7.1,1.5,10.8C128,121.7,124.9,128.3,119.7,133.1L119.7,133.1z"/>
</svg>
