<?xml version="1.0" encoding="utf-8"?>
<!-- Generator: Adobe Illustrator 22.0.0, SVG Export Plug-In . SVG Version: 6.00 Build 0)  -->
<svg version="1.1" id="图层_1" xmlns="http://www.w3.org/2000/svg" xmlns:xlink="http://www.w3.org/1999/xlink" x="0px" y="0px"
	 viewBox="0 0 200 200" style="enable-background:new 0 0 200 200;" xml:space="preserve">
<style type="text/css">
	.st0{fill:#DE231E;}
</style>
<g>
	<path class="st0" d="M78.9,126.7c-2.8,2.5-6,4.9-9.4,7.3c-1.3,0.9-0.6,2.9,0.9,2.9h26c0.9,0,1.6-0.7,1.6-1.6v-7.4
		c0-0.9-0.7-1.6-1.6-1.6H80C79.6,126.3,79.2,126.4,78.9,126.7z"/>
	<path class="st0" d="M100,9.6c-49.7,0-90,40.3-90,90s40.3,90,90,90s90-40.3,90-90S149.7,9.6,100,9.6z M145.4,107.4
		c0,0.9-0.7,1.6-1.6,1.6H94.5c-0.6,0-1.1,0.3-1.3,0.8c-0.5,0.9-1.1,1.8-1.6,2.6c-0.7,1,0.1,2.4,1.3,2.4h42.4c0.9,0,1.6,0.7,1.6,1.6
		v8.4c0,0.9-0.7,1.6-1.6,1.6h-21.4c-0.9,0-1.6,0.7-1.6,1.6v7.4c0,0.9,0.7,1.6,1.6,1.6h29.3c0.9,0,1.6,0.7,1.6,1.6v8.4
		c0,0.9-0.7,1.6-1.6,1.6H63.3c-0.9,0-1.6-0.7-1.6-1.6v-5.1c0-1.2-1.3-1.9-2.3-1.4c-0.7,0.4-1.4,0.8-2.2,1.2
		c-0.7,0.4-1.7,0.2-2.1-0.6l-5.2-8.5c-0.5-0.8-0.2-1.8,0.6-2.2c10.4-5.4,18.4-11.6,24.5-18.8c0.9-1,0.1-2.6-1.2-2.6H55.3
		c-0.9,0-1.6-0.7-1.6-1.6v-8.3c0-0.9,0.7-1.6,1.6-1.6h27.7c0.6,0,1.2-0.4,1.4-1c0.4-1,0.8-2,1.2-2.9c0.4-1-0.4-2.1-1.5-2.1H62.9
		c-0.9,0-1.6-0.7-1.6-1.6v-8.1c0-0.9,0.7-1.6,1.6-1.6h25.3c0.8,0,1.4-0.5,1.5-1.3l0.4-2.3c0-0.1,0.1-0.2,0.1-0.3
		c0.1-0.2,0.2-0.7,0.3-1.3H58.7c-0.9,0-1.6-0.7-1.6-1.6v-8.4c0-0.9,0.7-1.6,1.6-1.6h15.6c1.1,0,1.8-1.1,1.5-2.1l-2-5.7
		c-0.3-1,0.3-2,1.4-2.1l11.9-0.9c0.8-0.1,1.4,0.4,1.6,1.2l2.2,8.4c0.2,0.7,0.8,1.2,1.5,1.2h14.6c0.7,0,1.3-0.4,1.5-1.1l2.9-8.6
		c0.2-0.7,0.9-1.1,1.6-1.1l11.5,0.9c1.1,0.1,1.7,1.2,1.3,2.1l-2.2,5.5c-0.4,1,0.3,2.1,1.5,2.1h15.6c0.9,0,1.6,0.7,1.6,1.6v8.4
		c0,0.9-0.7,1.6-1.6,1.6H104c0,0.3-0.1,0.8-0.2,1.2l-0.4,2.1c-0.2,1,0.6,1.8,1.5,1.8h31.5c0.9,0,1.6,0.7,1.6,1.6v8.1
		c0,0.9-0.7,1.6-1.6,1.6h-34.6c-0.7,0-1.3,0.5-1.5,1.2c-0.3,1-0.5,1.9-0.8,2.8c-0.3,1,0.4,2.1,1.5,2.1h42.9c0.9,0,1.6,0.7,1.6,1.6
		V107.4z"/>
</g>
</svg>
