<?xml version="1.0" encoding="utf-8"?>
<!-- Generator: Adobe Illustrator 22.0.0, SVG Export Plug-In . SVG Version: 6.00 Build 0)  -->
<svg version="1.1" id="图层_1" xmlns="http://www.w3.org/2000/svg" xmlns:xlink="http://www.w3.org/1999/xlink" x="0px" y="0px"
	 viewBox="0 0 200 200" style="enable-background:new 0 0 200 200;" xml:space="preserve">
<style type="text/css">
	.st0{fill:#333333;}
	.st1{fill:#DD231D;}
</style>
<path class="st0" d="M148.9,184.8H49.2c-12.9,0-23.5-10.5-23.5-23.5v-109c0-12.9,10.5-23.5,23.5-23.5h11v10.4h-11
	c-7.2,0-13,5.8-13,13v109.1c0,7.2,5.8,13,13,13h99.7c7.2,0,13-5.8,13-13v-109c0-7.2-5.8-13-13-13h-11.1V28.8h11.1
	c12.9,0,23.5,10.5,23.5,23.5v109.1C172.3,174.3,161.8,184.8,148.9,184.8L148.9,184.8z"/>
<path class="st0" d="M119.8,24.8c5,0,9.1,4.1,9.1,9.1s-4.1,9.1-9.1,9.1H78.2c-5,0-9.1-4.1-9.1-9.1s4.1-9.1,9.1-9.1L119.8,24.8
	 M119.8,14.8H78.2c-10.6,0-19.1,8.6-19.1,19.1c0,10.6,8.6,19.1,19.1,19.1h41.6c10.6,0,19.1-8.6,19.1-19.1S130.4,14.8,119.8,14.8
	L119.8,14.8z"/>
<path class="st1" d="M133,141.3l-9.4-9.4c4.3-5.1,7-11.5,7.5-18.6c1.1-17.6-12.3-32.7-29.9-33.9c-0.7,0-1.4-0.1-2-0.1
	c-16.7,0-30.8,13-31.8,29.9c-1.1,17.6,12.3,32.7,29.9,33.9c0.7,0,1.4,0.1,2,0.1c7.8,0,15-2.8,20.6-7.6l9.4,9.4
	c0.5,0.5,1.2,0.8,1.9,0.8s1.4-0.3,1.9-0.8C134,144,134,142.3,133,141.3z M116.1,129.3c-4.6,4.3-10.6,6.7-16.9,6.7
	c-0.5,0-1.1,0-1.6,0c-3.3-0.2-6.5-1.1-9.5-2.5c-2.9-1.4-5.4-3.4-7.5-5.8c-2.1-2.4-3.8-5.2-4.8-8.2c-1.1-3.1-1.5-6.4-1.3-9.7
	c0.4-6.3,3.2-12.2,7.8-16.5c4.6-4.3,10.6-6.7,16.9-6.7c0.5,0,1.1,0,1.6,0c3.3,0.2,6.5,1.1,9.5,2.5c2.9,1.4,5.4,3.4,7.5,5.8
	c2.1,2.4,3.8,5.2,4.8,8.2c1.1,3.1,1.5,6.4,1.3,9.7C123.5,119.1,120.7,125,116.1,129.3L116.1,129.3z"/>
</svg>
