<?xml version="1.0" standalone="no"?><!DOCTYPE svg PUBLIC "-//W3C//DTD SVG 1.1//EN" "http://www.w3.org/Graphics/SVG/1.1/DTD/svg11.dtd"><svg t="1647224993599" class="icon" viewBox="0 0 1024 1024" version="1.1" xmlns="http://www.w3.org/2000/svg" p-id="12426" xmlns:xlink="http://www.w3.org/1999/xlink" width="200" height="200"><defs><style type="text/css"></style></defs><path d="M512 51.541333A460.458667 460.458667 0 1 0 972.458667 512 460.8 460.8 0 0 0 512 51.541333z m0 853.333334A392.192 392.192 0 1 1 904.192 512 392.874667 392.874667 0 0 1 512 904.192z" p-id="12427"></path><path d="M341.333333 526.677333a34.133333 34.133333 0 0 0-34.133333 34.133334v107.178666a34.133333 34.133333 0 0 0 68.266667 0v-107.178666a34.133333 34.133333 0 0 0-34.133334-34.133334zM512 429.056a34.133333 34.133333 0 0 0-34.133333 34.133333v204.8a34.133333 34.133333 0 0 0 68.266666 0v-204.8a34.133333 34.133333 0 0 0-34.133333-34.133333zM682.666667 321.877333a34.133333 34.133333 0 0 0-34.133334 34.133334v311.978666a34.133333 34.133333 0 0 0 68.266667 0v-311.978666a34.133333 34.133333 0 0 0-34.133333-34.133334z" p-id="12428"></path></svg>