<?xml version="1.0" encoding="utf-8"?>
<!-- Generator: Adobe Illustrator 22.0.0, SVG Export Plug-In . SVG Version: 6.00 Build 0)  -->
<svg version="1.1" id="图层_1" xmlns="http://www.w3.org/2000/svg" xmlns:xlink="http://www.w3.org/1999/xlink" x="0px" y="0px"
	 viewBox="0 0 200 200" style="enable-background:new 0 0 200 200;" xml:space="preserve">
<style type="text/css">
	.st0{fill:#DD231D;}
	.st1{fill:#333333;}
</style>
<path class="st0" d="M104.4,123.7v-2.9c0-3.4,0.8-6.5,2.4-9.3c1.3-2.3,3.2-4.5,6-7c5.5-5,9-8.2,10.3-9.7c3.2-4.2,4.8-9.2,4.8-14.9
	c0-7.6-2.4-13.5-7.1-17.9c-5-4.5-11.4-6.7-19.5-6.7c-9.2,0-16.3,2.8-21.3,8.4c-5,5.4-7.5,12.4-7.5,21.3h9.9c0-6.2,1.4-11,4.2-14.5
	c3-4.2,7.7-6.2,14.1-6.2c5.4,0,9.5,1.4,12.4,4.5c2.8,2.8,4.4,6.7,4.4,11.8c0,3.5-1.3,6.8-3.8,10c-0.8,1-2.3,2.5-4.4,4.5
	c-6.8,6.1-11,10.9-12.8,14.7c-1.5,3.2-2.3,6.8-2.3,11v2.9L104.4,123.7L104.4,123.7L104.4,123.7L104.4,123.7z"/>
<path class="st0" d="M99.3,145.3c1.9,0,3.4-0.7,4.8-1.9c1.3-1.3,1.9-2.9,1.9-4.8s-0.7-3.5-1.9-4.8c-1.3-1.3-3-1.9-4.9-1.9
	c-1.9,0-3.4,0.6-4.8,1.9c-1.3,1.3-1.9,2.9-1.9,4.8s0.5,3.5,1.9,4.8C95.8,144.5,97.3,145.3,99.3,145.3L99.3,145.3z"/>
<path class="st1" d="M100,20c44.1,0,80,35.9,80,80s-35.9,80-80,80s-80-35.9-80-80S55.9,20,100,20 M100,10c-49.6,0-90,40.4-90,90
	s40.4,90,90,90s90-40.4,90-90S149.6,10,100,10L100,10z"/>
</svg>
