<?xml version="1.0" encoding="utf-8"?>
<!-- Generator: Adobe Illustrator 22.0.0, SVG Export Plug-In . SVG Version: 6.00 Build 0)  -->
<svg version="1.1" id="图层_1" xmlns="http://www.w3.org/2000/svg" xmlns:xlink="http://www.w3.org/1999/xlink" x="0px" y="0px"
	 viewBox="0 0 200 200" style="enable-background:new 0 0 200 200;" xml:space="preserve">
<style type="text/css">
	.st0{fill:#DD231D;}
</style>
<g>
	<path class="st0" d="M127.4,69.9v10.8c0,0.8-0.7,1.5-1.5,1.5h-25.6c-0.8,0-1.5-0.7-1.5-1.5V69.9c0-0.8,0.6-1.5,1.5-1.5h25.6
		C126.7,68.4,127.4,69.1,127.4,69.9z"/>
</g>
<g>
	<path class="st0" d="M100,9.6c-49.7,0-90,40.3-90,90c0,49.7,40.3,90,90,90c49.7,0,90-40.3,90-90C190,49.9,149.7,9.6,100,9.6z
		 M148.3,136.8l-2.6,9.9c-0.2,0.6-0.7,1-1.3,1.1c-8.4,0.5-16,0.7-24.1,0.4c-11.8-0.3-19.6-3.8-25.5-11.4c-0.7-0.8-2-0.7-2.4,0.2
		c-2.2,4.4-4.8,8.6-8.2,13c-0.5,0.6-1.3,0.8-1.9,0.4l-5.5-3.4c-1-0.6-2.2,0.1-2.2,1.2c0,0.8-0.6,1.5-1.4,1.5H62.7
		c-0.8,0-1.4-0.6-1.4-1.5v-41.5c0-1.4-1.8-2-2.6-0.8c-0.5,0.8-1.1,1.5-1.7,2.3c-0.6,0.7-1.6,0.8-2.3,0.1l-6.7-7.7
		c-0.5-0.5-0.5-1.3-0.1-1.8c9.6-13.2,16-30.7,20.3-45.4c0.2-0.8,1-1.2,1.8-1l10.2,2.9c0.8,0.2,1.2,1,1,1.8
		c-2.2,7.2-4.3,13.4-6.6,19.5c-0.1,0.2-0.1,0.3-0.1,0.5v58.9c0,1.5,1.9,2,2.7,0.8c6.4-10.2,8.8-19.4,9.7-34.5c0-0.8,0.8-1.5,1.6-1.4
		l10.4,1.4c0.8,0.1,1.3,0.8,1.3,1.6c-0.4,5.5-0.9,10.4-1.8,14.8c0,0.3,0,0.5,0.1,0.8c1.8,4.9,3.9,8.3,6.5,10.7
		c0.9,0.9,2.5,0.2,2.5-1V96.8c0-0.8-0.6-1.4-1.5-1.4H86.5c-0.8,0-1.4-0.7-1.4-1.5V56.5c0-0.8,0.6-1.5,1.4-1.5h53.3
		c0.8,0,1.5,0.7,1.5,1.5v37.5c0,0.8-0.6,1.5-1.5,1.5h-17.2c-0.8,0-1.5,0.6-1.5,1.4v8.9c0,0.8,0.7,1.5,1.5,1.5h19.7
		c0.8,0,1.4,0.7,1.4,1.5v10.2c0,0.8-0.6,1.5-1.4,1.5h-19.7c-0.8,0-1.5,0.6-1.5,1.5v12.2c0,0.8,0.6,1.4,1.4,1.5
		c10,0.3,15.6,0.1,24.3-0.4C147.8,134.9,148.6,135.9,148.3,136.8z"/>
</g>
</svg>
