<?xml version="1.0" encoding="utf-8"?>
<!-- Generator: Adobe Illustrator 22.0.0, SVG Export Plug-In . SVG Version: 6.00 Build 0)  -->
<svg version="1.1" id="图层_1" xmlns="http://www.w3.org/2000/svg" xmlns:xlink="http://www.w3.org/1999/xlink" x="0px" y="0px"
	 viewBox="0 0 200 200" style="enable-background:new 0 0 200 200;" xml:space="preserve">
<style type="text/css">
	.st0{fill:#333333;}
	.st1{fill:#DD231D;}
</style>
<path class="st0" d="M77,183.7H39.3c-11.6,0-21-9.4-21-21V77.2c0-7,3.5-13.5,9.2-17.4l59.1-39.9c7-4.8,16.2-4.8,23.3-0.1l60.9,40.1
	c5.9,3.9,9.5,10.5,9.5,17.5v33.3c0,2.8-2.2,5-5,5s-5-2.2-5-5V77.3c0-3.7-1.9-7.2-5-9.2L104.4,28c-3.7-2.4-8.5-2.4-12.2,0.1
	L33.2,68.1c-3,2-4.8,5.5-4.8,9.1v85.5c0,6.1,4.9,11,11,11H77c2.8,0,5,2.2,5,5S79.8,183.7,77,183.7z"/>
<g>
	<g>
		<path class="st1" d="M136.2,174.7l26.9-26.9c2-2,5.1-2,7.1,0l0,0c2,2,2,5.1,0,7.1l-26.9,26.9c-2,2-5.1,2-7.1,0h0
			C134.2,179.8,134.2,176.7,136.2,174.7z"/>
		<path class="st1" d="M163,154.9l-26.9-26.9c-2-2-2-5.1,0-7.1l0,0c2-2,5.1-2,7.1,0l26.9,26.9c2,2,2,5.1,0,7.1v0
			C168.2,156.9,165,156.9,163,154.9z"/>
	</g>
	<path class="st1" d="M160.2,156.4h-58c-2.8,0-5-2.2-5-5l0,0c0-2.8,2.2-5,5-5h58c2.8,0,5,2.2,5,5l0,0
		C165.2,154.2,163,156.4,160.2,156.4z"/>
</g>
</svg>
