<?xml version="1.0" encoding="utf-8"?>
<!-- Generator: Adobe Illustrator 22.0.0, SVG Export Plug-In . SVG Version: 6.00 Build 0)  -->
<svg version="1.1" id="图层_1" xmlns="http://www.w3.org/2000/svg" xmlns:xlink="http://www.w3.org/1999/xlink" x="0px" y="0px"
	 viewBox="0 0 200 200" style="enable-background:new 0 0 200 200;" xml:space="preserve">
<style type="text/css">
	.st0{fill:#333333;}
	.st1{fill:#DD231D;}
</style>
<path class="st0" d="M160.3,183.7h-37.7c-2.8,0-5-2.2-5-5s2.2-5,5-5h37.7c6.1,0,11-4.9,11-11V77.2c0-3.7-1.8-7.1-4.8-9.1l-59.1-39.9
	c-3.7-2.5-8.5-2.5-12.2-0.1L34.3,68.1c-3.1,2-5,5.5-5,9.2v33.3c0,2.8-2.2,5-5,5s-5-2.2-5-5V77.3c0-7.1,3.5-13.7,9.5-17.5l60.9-40.1
	c7.1-4.7,16.3-4.6,23.3,0.1l59.1,39.9c5.8,3.9,9.2,10.4,9.2,17.4v85.5C181.3,174.2,171.9,183.7,160.3,183.7z"/>
<g>
	<g>
		<path class="st1" d="M63.2,173.7L90,146.9c2-2,5.1-2,7.1,0h0c2,2,2,5.1,0,7.1l-26.9,26.9c-2,2-5.1,2-7.1,0h0
			C61.2,178.8,61.2,175.7,63.2,173.7z"/>
		<path class="st1" d="M90,153.9l-26.9-26.9c-2-2-2-5.1,0-7.1l0,0c2-2,5.1-2,7.1,0l26.9,26.9c2,2,2,5.1,0,7.1l0,0
			C95.2,155.9,92,155.9,90,153.9z"/>
	</g>
	<path class="st1" d="M87.2,155.4h-58c-2.8,0-5-2.2-5-5l0,0c0-2.8,2.2-5,5-5h58c2.8,0,5,2.2,5,5l0,0C92.2,153.2,90,155.4,87.2,155.4
		z"/>
</g>
</svg>
