<?xml version="1.0" encoding="utf-8"?>
<!-- Generator: Adobe Illustrator 22.0.0, SVG Export Plug-In . SVG Version: 6.00 Build 0)  -->
<svg version="1.1" id="图层_1" xmlns="http://www.w3.org/2000/svg" xmlns:xlink="http://www.w3.org/1999/xlink" x="0px" y="0px"
	 viewBox="0 0 200 200" style="enable-background:new 0 0 200 200;" xml:space="preserve">
<style type="text/css">
	.st0{fill:#333333;}
	.st1{fill:#DD231D;}
</style>
<path class="st0" d="M148.9,185.8H49.2c-12.9,0-23.5-10.5-23.5-23.5v-109c0-12.9,10.5-23.5,23.5-23.5h11v10.4h-11
	c-7.2,0-13,5.8-13,13v109.1c0,7.2,5.8,13,13,13h99.7c7.2,0,13-5.8,13-13v-109c0-7.2-5.8-13-13-13h-11.1V29.8h11.1
	c12.9,0,23.5,10.5,23.5,23.5v109.1C172.3,175.3,161.8,185.8,148.9,185.8L148.9,185.8z"/>
<path class="st0" d="M119.8,25.8c5,0,9.1,4.1,9.1,9.1s-4.1,9.1-9.1,9.1H78.2c-5,0-9.1-4.1-9.1-9.1s4.1-9.1,9.1-9.1L119.8,25.8
	 M119.8,15.8H78.2c-10.6,0-19.1,8.6-19.1,19.1c0,10.6,8.6,19.1,19.1,19.1h41.6c10.6,0,19.1-8.6,19.1-19.1S130.4,15.8,119.8,15.8
	L119.8,15.8z"/>
<g>
	<path class="st1" d="M99,76c-19.9,0-36,16.2-36,36s16.2,36,36,36s36-16.2,36-36S118.9,76,99,76z M127.9,112
		c0,5.7-1.7,11.3-4.9,16.1c-3.1,4.6-7.6,8.3-12.7,10.5c-8.9,3.8-19.2,2.8-27.3-2.6c-4.6-3.1-8.3-7.6-10.5-12.7
		c-3.8-8.9-2.8-19.2,2.6-27.3c3.1-4.6,7.6-8.3,12.7-10.5c8.9-3.8,19.2-2.8,27.3,2.6c4.6,3.1,8.3,7.6,10.5,12.7
		C127.1,104.3,127.9,108.2,127.9,112L127.9,112z"/>
	<path class="st1" d="M102.6,110.5V94c0-2-1.6-3.6-3.6-3.6c-2,0-3.6,1.6-3.6,3.6v18c0,0.9,0.3,1.9,1,2.6l14.4,14.4
		c1.4,1.4,3.7,1.4,5.1,0c1.4-1.4,1.4-3.7,0-5.1l0,0L102.6,110.5z"/>
</g>
</svg>
