<?xml version="1.0" standalone="no"?><!DOCTYPE svg PUBLIC "-//W3C//DTD SVG 1.1//EN" "http://www.w3.org/Graphics/SVG/1.1/DTD/svg11.dtd"><svg t="1639015471544" class="icon" viewBox="0 0 1024 1024" version="1.1" xmlns="http://www.w3.org/2000/svg" p-id="4775" xmlns:xlink="http://www.w3.org/1999/xlink" width="200" height="200"><defs><style type="text/css"></style></defs><path d="M848.685247 932.784308H175.423128c-61.990545 0-112.276582-50.249912-112.276582-112.276582V315.588231c0-61.918295 50.249912-112.168207 112.276582-112.168207h168.306499V147.245608c0-30.959148 25.070768-56.029916 56.029916-56.029916h224.444789c30.959148 0 56.138291 25.070768 56.138291 56.029916V203.383899h168.306499c61.918295 0 112.168207 50.249912 112.168207 112.168207v504.95562c0.036125 62.02667-50.213787 112.276582-112.132082 112.276582zM624.240457 203.383899v-28.033021c0-15.497636-12.535384-28.105271-28.03302-28.10527h-168.306499c-15.461511 0-28.105271 12.643759-28.10527 28.10527v28.033021h224.444789z m280.583081 112.204332c0-30.959148-25.179143-56.066041-56.138291-56.066041H175.423128c-31.031398 0-56.138291 25.106893-56.138291 56.066041v140.309603h785.538701V315.588231z m-448.889579 224.44479c0 30.959148 25.106893 56.138291 56.138291 56.138291 30.959148 0 56.029916-25.179143 56.029916-56.138291 0-10.223382-2.926127-19.760389-7.730756-28.033021h-96.59832c-4.913004 8.272631-7.839131 17.809638-7.839131 28.033021z m448.889579-28.033021h-284.484584c2.312002 8.995132 3.901503 18.315388 3.901503 28.033021 0 62.02667-50.249912 112.168207-112.168207 112.168207-62.02667 0-112.276582-50.177662-112.276582-112.168207 0-9.681507 1.697876-19.037889 4.009878-28.033021H119.284837v308.507726c0 31.031398 25.070768 56.138291 56.138291 56.138291h673.262119c30.959148 0 56.138291-25.106893 56.138291-56.138291v-308.507726z" fill="#231815" p-id="4776"></path></svg>