<?xml version="1.0" encoding="utf-8"?>
<!-- Generator: Adobe Illustrator 22.0.0, SVG Export Plug-In . SVG Version: 6.00 Build 0)  -->
<svg version="1.1" id="图层_1" xmlns="http://www.w3.org/2000/svg" xmlns:xlink="http://www.w3.org/1999/xlink" x="0px" y="0px"
	 viewBox="0 0 200 200" style="enable-background:new 0 0 200 200;" xml:space="preserve">
<style type="text/css">
	.st0{fill:#333333;}
	.st1{fill:#DD231D;}
</style>
<path class="st0" d="M78,183.7H40.3c-11.6,0-21-9.4-21-21V77.2c0-7,3.5-13.5,9.2-17.4l59.1-39.9c7-4.8,16.2-4.8,23.3-0.1l60.9,40.1
	c5.9,3.9,9.5,10.5,9.5,17.5v33.3c0,2.8-2.2,5-5,5s-5-2.2-5-5V77.3c0-3.7-1.9-7.2-5-9.2L105.4,28c-3.7-2.4-8.5-2.4-12.2,0.1
	L34.2,68.1c-3,2-4.8,5.5-4.8,9.1v85.5c0,6.1,4.9,11,11,11H78c2.8,0,5,2.2,5,5S80.8,183.7,78,183.7z"/>
<g>
	<path class="st1" d="M123,165.5l6.5,6.5c2,2,2,5.2,0,7.1c-2,2-5.2,2-7.1,0l-14.5-14.5c-1.4-0.9-2.3-2.5-2.3-4.2c0-2.8,2.3-5,5-5
		c0.1,0,0.2,0,0.2,0h50.5c2.8,0,5,2.3,5,5c0,2.8-2.3,5-5,5H123z"/>
	<path class="st1" d="M110.7,145.7c-2.8,0-5-2.3-5-5c0-2.8,2.3-5,5-5h38.8l-6.5-6.5c-2-2-2-5.2,0-7.1c2-2,5.2-2,7.1,0l15.1,15.1
		c2,2,2,5.2,0,7.1c-1,1-2.3,1.5-3.6,1.5C161.5,145.7,144.5,145.7,110.7,145.7z"/>
</g>
</svg>
