<?xml version="1.0" encoding="utf-8"?>
<!-- Generator: Adobe Illustrator 22.0.0, SVG Export Plug-In . SVG Version: 6.00 Build 0)  -->
<svg version="1.1" id="图层_1" xmlns="http://www.w3.org/2000/svg" xmlns:xlink="http://www.w3.org/1999/xlink" x="0px" y="0px"
	 viewBox="0 0 200 200" style="enable-background:new 0 0 200 200;" xml:space="preserve">
<style type="text/css">
	.st0{fill:#333333;}
	.st1{fill:#DD231D;}
</style>
<path class="st0" d="M96,14c-22.1,0-40,17.9-40,40s17.9,40,40,40s40-17.9,40-40S118.1,14,96,14z M96,84c-16.5,0-30-13.5-30-30
	s13.5-30,30-30s30,13.5,30,30S112.5,84,96,84z"/>
<path class="st0" d="M46,174c-11,0-20-9-20-20v-10c0-16.6,13.4-30,30-30h34.7c0.7,0,1.3-0.4,1.7-1c1.3-2,2.6-4,4.1-5.8
	c1.1-1.3,0.1-3.2-1.6-3.2H56c-22.1,0-40,17.9-40,40v10c0,16.6,13.4,30,30,30h49.5c1.7,0,2.6-2,1.5-3.3c-1.5-1.8-2.9-3.8-4.2-5.8
	c-0.4-0.6-1-0.9-1.7-0.9H46z"/>
<path class="st1" d="M180.5,177.9L168.7,166c5.4-6.4,8.8-14.5,9.5-23.5c1.4-22.2-15.5-41.3-37.8-42.8c-0.9,0-1.8-0.1-2.5-0.1
	c-21.1,0-38.9,16.4-40.2,37.8c-1.4,22.2,15.5,41.3,37.8,42.8c0.9,0,1.8,0.1,2.5,0.1c9.9,0,18.9-3.5,26-9.6l11.9,11.9
	c0.6,0.6,1.5,1,2.4,1s1.8-0.4,2.4-1C181.8,181.3,181.8,179.1,180.5,177.9z M159.2,162.7c-5.8,5.4-13.4,8.5-21.3,8.5
	c-0.6,0-1.4,0-2,0c-4.2-0.3-8.2-1.4-12-3.2c-3.7-1.8-6.8-4.3-9.5-7.3s-4.8-6.6-6.1-10.4c-1.4-3.9-1.9-8.1-1.6-12.3
	c0.5-8,4-15.4,9.9-20.8c5.8-5.4,13.4-8.5,21.3-8.5c0.6,0,1.4,0,2,0c4.2,0.3,8.2,1.4,12,3.2c3.7,1.8,6.8,4.3,9.5,7.3
	s4.8,6.6,6.1,10.4c1.4,3.9,1.9,8.1,1.6,12.3C168.5,149.8,165,157.3,159.2,162.7L159.2,162.7z"/>
</svg>
