<?xml version="1.0" encoding="utf-8"?>
<!-- Generator: Adobe Illustrator 22.0.0, SVG Export Plug-In . SVG Version: 6.00 Build 0)  -->
<svg version="1.1" id="图层_1" xmlns="http://www.w3.org/2000/svg" xmlns:xlink="http://www.w3.org/1999/xlink" x="0px" y="0px"
	 viewBox="0 0 200 200" style="enable-background:new 0 0 200 200;" xml:space="preserve">
<style type="text/css">
	.st0{fill:#DD231D;}
</style>
<path d="M100,27.3c2,0,4,0.6,5.7,1.8l60,41.3c2.7,1.9,4.3,4.9,4.3,8.2V163c0,5.5-4.5,10-10,10H40c-5.5,0-10-4.5-10-10V78.5
	c0-3.3,1.6-6.4,4.3-8.2l60-41.3C96,27.9,98,27.3,100,27.3 M100,17.3c-4,0-7.9,1.2-11.3,3.5L28.7,62c-5.4,3.7-8.7,9.9-8.7,16.5V163
	c0,11,9,20,20,20h120c11,0,20-9,20-20V78.5c0-6.6-3.2-12.7-8.7-16.5l-60-41.3C107.9,18.4,104,17.3,100,17.3L100,17.3z"/>
<g>
	<path class="st0" d="M86.9,130.7l7,7c2.2,2.2,2.2,5.6,0,7.7c-2.2,2.2-5.6,2.2-7.7,0l-15.7-15.7c-1.5-1-2.5-2.7-2.5-4.5
		c0-3,2.5-5.4,5.4-5.4c0.1,0,0.2,0,0.2,0h54.5c3,0,5.4,2.5,5.4,5.4c0,3-2.5,5.4-5.4,5.4H86.9V130.7z"/>
	<path class="st0" d="M73.7,109.3c-3,0-5.4-2.5-5.4-5.4c0-3,2.5-5.4,5.4-5.4h41.9l-7-7c-2.2-2.2-2.2-5.6,0-7.7
		c2.2-2.2,5.6-2.2,7.7,0l16.3,16.3c2.2,2.2,2.2,5.6,0,7.7c-1.1,1.1-2.5,1.6-3.9,1.6C128.5,109.3,110.2,109.3,73.7,109.3z"/>
</g>
</svg>
