<?xml version="1.0" encoding="utf-8"?>
<!-- Generator: Adobe Illustrator 22.0.0, SVG Export Plug-In . SVG Version: 6.00 Build 0)  -->
<svg version="1.1" id="图层_1" xmlns="http://www.w3.org/2000/svg" xmlns:xlink="http://www.w3.org/1999/xlink" x="0px" y="0px"
	 viewBox="0 0 200 200" style="enable-background:new 0 0 200 200;" xml:space="preserve">
<style type="text/css">
	.st0{fill:#DD231D;}
</style>
<path d="M100,26.3c2,0,4,0.6,5.7,1.8l60,41.3c2.7,1.9,4.3,4.9,4.3,8.2V162c0,5.5-4.5,10-10,10H40c-5.5,0-10-4.5-10-10V77.5
	c0-3.3,1.6-6.4,4.3-8.2l60-41.3C96,26.9,98,26.3,100,26.3 M100,16.3c-4,0-7.9,1.2-11.3,3.5L28.7,61c-5.4,3.7-8.7,9.9-8.7,16.5V162
	c0,11,9,20,20,20h120c11,0,20-9,20-20V77.5c0-6.6-3.2-12.7-8.7-16.5l-60-41.3C107.9,17.4,104,16.3,100,16.3L100,16.3z"/>
<path class="st0" d="M145,152.1l-12.4-12.4c5.6-6.6,9.2-15,9.8-24.4c1.5-23.1-16.1-42.9-39.1-44.4c-0.9-0.1-1.8-0.1-2.7-0.1
	c-21.9,0-40.3,17-41.7,39.2C57.5,133.1,75,153,98,154.4c0.9,0.1,1.8,0.1,2.7,0.1c10.2,0,19.7-3.7,27-9.9l12.4,12.4
	c0.7,0.7,1.6,1,2.5,1c0.9,0,1.8-0.3,2.5-1C146.3,155.6,146.3,153.4,145,152.1z M123.4,137c-6.2,5.8-14.3,9-22.7,9
	c-0.7,0-1.4,0-2.1-0.1c-4.5-0.3-8.8-1.4-12.8-3.4c-3.9-1.9-7.3-4.5-10.1-7.8c-2.9-3.2-5-7-6.5-11c-1.5-4.2-2.1-8.6-1.8-13.1
	c0.5-8.5,4.3-16.4,10.5-22.2c6.2-5.8,14.3-9,22.7-9c0.7,0,1.4,0,2.1,0.1c4.5,0.3,8.8,1.4,12.8,3.4c3.9,1.9,7.3,4.5,10.1,7.8
	c2.9,3.2,5,7,6.5,11c1.5,4.2,2.1,8.6,1.8,13.1C133.4,123.3,129.6,131.2,123.4,137L123.4,137z"/>
</svg>
