<?xml version="1.0" encoding="utf-8"?>
<!-- Generator: Adobe Illustrator 22.0.0, SVG Export Plug-In . SVG Version: 6.00 Build 0)  -->
<svg version="1.1" id="图层_1" xmlns="http://www.w3.org/2000/svg" xmlns:xlink="http://www.w3.org/1999/xlink" x="0px" y="0px"
	 viewBox="0 0 200 200" style="enable-background:new 0 0 200 200;" xml:space="preserve">
<style type="text/css">
	.st0{fill:#DD231D;}
	.st1{fill:#333333;}
</style>
<path class="st0" d="M165,176.3l-9.4-9.4c4.3-5.1,7-11.5,7.5-18.6c1.1-17.6-12.3-32.7-29.9-33.9c-0.7,0-1.4-0.1-2-0.1
	c-16.7,0-30.8,13-31.8,29.9c-1.1,17.6,12.3,32.7,29.9,33.9c0.7,0,1.4,0.1,2,0.1c7.8,0,15-2.8,20.6-7.6l9.4,9.4
	c0.5,0.5,1.2,0.8,1.9,0.8c0.7,0,1.4-0.3,1.9-0.8C166,179,166,177.3,165,176.3z M148.1,164.3c-4.6,4.3-10.6,6.7-16.9,6.7
	c-0.5,0-1.1,0-1.6,0c-3.3-0.2-6.5-1.1-9.5-2.5c-2.9-1.4-5.4-3.4-7.5-5.8c-2.1-2.4-3.8-5.2-4.8-8.2c-1.1-3.1-1.5-6.4-1.3-9.7
	c0.4-6.3,3.2-12.2,7.8-16.5c4.6-4.3,10.6-6.7,16.9-6.7c0.5,0,1.1,0,1.6,0c3.3,0.2,6.5,1.1,9.5,2.5c2.9,1.4,5.4,3.4,7.5,5.8
	c2.1,2.4,3.8,5.2,4.8,8.2c1.1,3.1,1.5,6.4,1.3,9.7C155.5,154.1,152.7,160,148.1,164.3L148.1,164.3z"/>
<path class="st1" d="M78,183.7H40.3c-11.6,0-21-9.4-21-21V77.2c0-7,3.5-13.5,9.2-17.4l59.1-39.9c7-4.8,16.2-4.8,23.3-0.1l60.9,40.1
	c5.9,3.9,9.5,10.5,9.5,17.5v33.3c0,2.8-2.2,5-5,5s-5-2.2-5-5V77.3c0-3.7-1.9-7.2-5-9.2L105.4,28c-3.7-2.4-8.5-2.4-12.2,0.1
	L34.2,68.1c-3,2-4.8,5.5-4.8,9.1v85.5c0,6.1,4.9,11,11,11H78c2.8,0,5,2.2,5,5S80.8,183.7,78,183.7z"/>
</svg>
