<?xml version="1.0" encoding="utf-8"?>
<!-- Generator: Adobe Illustrator 22.0.0, SVG Export Plug-In . SVG Version: 6.00 Build 0)  -->
<svg version="1.1" id="图层_1" xmlns="http://www.w3.org/2000/svg" xmlns:xlink="http://www.w3.org/1999/xlink" x="0px" y="0px"
	 viewBox="0 0 200 200" style="enable-background:new 0 0 200 200;" xml:space="preserve">
<style type="text/css">
	.st0{fill:#B8DD1D;}
</style>
<g>
	<path class="st0" d="M92.5,94.3H76.2c-1.1,0-2,0.9-2,2V115c0,1.1,0.9,2,2,2h16.2c1.1,0,2-0.9,2-2V96.3
		C94.5,95.2,93.6,94.3,92.5,94.3z"/>
	<path class="st0" d="M100,9.6c-49.7,0-90,40.3-90,90s40.3,90,90,90s90-40.3,90-90S149.7,9.6,100,9.6z M63.1,130.3c-1.1,0-2-0.9-2-2
		v-45c0-1.1,0.9-2,2-2h42.4c1.1,0,2,0.9,2,2v45c0,1.1-0.9,2-2,2H63.1z M145.9,68.6c0,1.1-0.9,2-2,2h-8.1c-1.1,0-2,0.9-2,2V134
		c0,13.1-1.9,15.8-15.5,17l-7.4,0.7c-0.9,0.1-1.8-0.5-2.1-1.4l-3-9.4c-0.4-1.2,0.5-2.5,1.7-2.6l6-0.5c6.3-0.5,6.4-1.3,6.4-8V72.6
		c0-1.1-0.9-2-2-2H52.9c-1.1,0-2-0.9-2-2v-9.1c0-1.1,0.9-2,2-2h91c1.1,0,2,0.9,2,2V68.6z"/>
</g>
</svg>
