<?xml version="1.0" encoding="utf-8"?>
<!-- Generator: Adobe Illustrator 22.0.0, SVG Export Plug-In . SVG Version: 6.00 Build 0)  -->
<svg version="1.1" id="图层_1" xmlns="http://www.w3.org/2000/svg" xmlns:xlink="http://www.w3.org/1999/xlink" x="0px" y="0px"
	 viewBox="0 0 200 200" style="enable-background:new 0 0 200 200;" xml:space="preserve">
<style type="text/css">
	.st0{fill:#DD231D;}
</style>
<g>
	<path class="st0" d="M100,71.7c-23.4,0-42.3,19-42.3,42.3s19,42.3,42.3,42.3s42.3-19,42.3-42.3S123.4,71.7,100,71.7z M133.9,114
		c0,6.7-2,13.3-5.8,18.9c-3.7,5.4-8.9,9.7-14.9,12.3c-10.5,4.5-22.6,3.3-32.1-3.1c-5.4-3.7-9.7-8.9-12.3-14.9
		c-4.5-10.5-3.3-22.6,3.1-32.1c3.7-5.4,8.9-9.7,14.9-12.3c10.5-4.5,22.6-3.3,32.1,3.1c5.4,3.7,9.7,8.9,12.3,14.9
		C133,105,133.9,109.5,133.9,114L133.9,114z"/>
	<path class="st0" d="M104.2,112.2V92.8c0-2.3-1.9-4.2-4.2-4.2c-2.3,0-4.2,1.9-4.2,4.2V114c0,1.1,0.4,2.2,1.2,3l16.9,16.9
		c1.7,1.7,4.3,1.7,6,0c1.7-1.7,1.7-4.3,0-6l0,0L104.2,112.2z"/>
</g>
<path d="M99,28.3c2,0,4,0.6,5.7,1.8l60,41.3c2.7,1.9,4.3,4.9,4.3,8.2V164c0,5.5-4.5,10-10,10H39c-5.5,0-10-4.5-10-10V79.5
	c0-3.3,1.6-6.4,4.3-8.2l60-41.3C95,28.9,97,28.3,99,28.3 M99,18.3c-4,0-7.9,1.2-11.3,3.5L27.7,63c-5.4,3.7-8.7,9.9-8.7,16.5V164
	c0,11,9,20,20,20h120c11,0,20-9,20-20V79.5c0-6.6-3.2-12.7-8.7-16.5l-60-41.3C106.9,19.4,103,18.3,99,18.3L99,18.3z"/>
</svg>
