<?xml version="1.0" encoding="utf-8"?>
<!-- Generator: Adobe Illustrator 22.0.0, SVG Export Plug-In . SVG Version: 6.00 Build 0)  -->
<svg version="1.1" id="图层_1" xmlns="http://www.w3.org/2000/svg" xmlns:xlink="http://www.w3.org/1999/xlink" x="0px" y="0px"
	 viewBox="0 0 200 200" style="enable-background:new 0 0 200 200;" xml:space="preserve">
<style type="text/css">
	.st0{fill:#333333;}
	.st1{fill:#DD231D;}
</style>
<path class="st0" d="M77,183.7H39.3c-11.6,0-21-9.4-21-21V77.2c0-7,3.5-13.5,9.2-17.4l59.1-39.9c7-4.8,16.2-4.8,23.3-0.1l60.9,40.1
	c5.9,3.9,9.5,10.5,9.5,17.5v33.3c0,2.8-2.2,5-5,5s-5-2.2-5-5V77.3c0-3.7-1.9-7.2-5-9.2L104.4,28c-3.7-2.4-8.5-2.4-12.2,0.1l-59,40
	c-3,2-4.8,5.5-4.8,9.1v85.5c0,6.1,4.9,11,11,11H77c2.8,0,5,2.2,5,5S79.8,183.7,77,183.7z"/>
<path class="st1" d="M121,186.7c-2,0-3.9-1-5.1-2.5c-1.2-1.6-1.6-3.5-1-5.5l4.9-18.5h-4.1c-2.8,0-5.4-1.4-7-3.7
	c-1.6-2.3-2-5.3-1-7.9l11.9-31.3c0.6-1.6,2.1-2.6,3.7-2.6h22.7c2,0,3.9,0.9,5.1,2.6c1.2,1.6,1.6,3.8,1,5.8c0,0.1-0.1,0.3-0.1,0.4
	l-5,12.3h2.8c3.4,0,6.4,1.9,7.8,5c1.4,3.1,0.9,6.6-1.3,9.2l-30.3,34.5C124.6,185.9,122.8,186.7,121,186.7z M122.6,180.7L122.6,180.7
	C122.6,180.7,122.6,180.7,122.6,180.7z M126,122.7l-10.9,28.7c-0.1,0.2,0,0.4,0.1,0.6c0.2,0.2,0.4,0.2,0.5,0.2h9.3
	c1.2,0,2.4,0.6,3.2,1.6c0.8,1,1,2.3,0.7,3.5l-4.4,16.7l25.7-29.3c0.1-0.1,0.2-0.2,0.1-0.6c-0.2-0.4-0.4-0.4-0.5-0.4h-8.8
	c-1.3,0-2.6-0.7-3.3-1.8c-0.7-1.1-0.9-2.5-0.4-3.7l6.4-15.5H126z"/>
</svg>
