<?xml version="1.0" encoding="utf-8"?>
<!-- Generator: Adobe Illustrator 22.0.0, SVG Export Plug-In . SVG Version: 6.00 Build 0)  -->
<svg version="1.1" id="图层_1" xmlns="http://www.w3.org/2000/svg" xmlns:xlink="http://www.w3.org/1999/xlink" x="0px" y="0px"
	 viewBox="0 0 200 200" style="enable-background:new 0 0 200 200;" xml:space="preserve">
<style type="text/css">
	.st0{fill:#333333;}
	.st1{fill:#DD231D;}
</style>
<path class="st0" d="M163.4,39.4h-83c-8.6,0-15.6,7-15.6,15.6v25.5H49.6c-3.7,0-7.3,1.3-10.1,3.8l-15,18c-3.5,3-5.4,7.3-5.4,11.8
	v13.6c0,8.6,7,15.6,15.6,15.6H37v0.3c0.2,9.6,8,17.4,17.7,17.4c9.8,0,17.7-7.9,17.7-17.7h37.8l0,0.3c0.2,9.6,8,17.4,17.7,17.4
	c9.8,0,17.7-7.9,17.7-17.7h18c8.6,0,15.6-7,15.6-15.6V55C179,46.4,172,39.4,163.4,39.4z M54.7,150.5c-4,0-7.3-3.3-7.3-7.3
	c0-4,3.3-7.3,7.3-7.3c4,0,7.3,3.3,7.3,7.3C62,147.2,58.7,150.5,54.7,150.5z M64.9,128.8c-2.9-2-6.4-3.3-10.2-3.3
	c-5.9,0-11.1,2.9-14.3,7.3h-5.8c-2.9,0-5.2-2.3-5.2-5.2V114c0-1.5,0.7-3,1.8-3.9l15-18c0.9-0.8,2.1-1.3,3.4-1.3h15.3V128.8z
	 M127.8,150.5c-4,0-7.3-3.3-7.3-7.3v-0.1c0.1-4,3.3-7.2,7.3-7.2c4,0,7.3,3.3,7.3,7.3C135.1,147.2,131.8,150.5,127.8,150.5z
	 M168.6,127.6c0,2.9-2.3,5.2-5.2,5.2h-21.4c-3.2-4.4-8.4-7.3-14.3-7.3c-5.9,0-11.1,2.9-14.3,7.3H75.3V55c0-2.9,2.3-5.2,5.2-5.2h83
	c2.9,0,5.2,2.3,5.2,5.2V127.6z"/>
<path class="st1" d="M132.8,69.4c0.2,0,0.3,0.1,0.3,0.1l8.8,8.8c0.1,0.1,0.1,0.3,0,0.4l-26.3,26.3c-1.8,1.6-4.1,2.7-6.5,3l-6.4,0.5
	l0.5-6.4c0.3-2.4,1.4-4.7,3-6.5l26.2-26.2C132.5,69.5,132.6,69.4,132.8,69.4 M132.8,61.4c-2.1,0-4.2,0.8-5.9,2.3l-26.5,26.4
	c-2.8,3.1-4.6,7-5.2,11.1l-0.6,7.2c-0.6,6.8-0.6,6.8,0.4,7.7c0.5,0.5,1.2,0.8,2,0.8c0,0,0,0,0,0c0.4,0,2.3-0.2,5.8-0.4l7.2-0.6
	c4.2-0.5,8-2.3,11.1-5.2l26.4-26.5c3.2-3.2,3.2-8.5,0-11.7l-8.9-8.9C137,62.2,134.9,61.4,132.8,61.4L132.8,61.4z"/>
</svg>
