<?xml version="1.0" encoding="utf-8"?>
<!-- Generator: Adobe Illustrator 22.0.0, SVG Export Plug-In . SVG Version: 6.00 Build 0)  -->
<svg version="1.1" id="图层_1" xmlns="http://www.w3.org/2000/svg" xmlns:xlink="http://www.w3.org/1999/xlink" x="0px" y="0px"
	 viewBox="0 0 200 200" style="enable-background:new 0 0 200 200;" xml:space="preserve">
<style type="text/css">
	.st0{fill:#333333;}
	.st1{fill:#DD231D;}
</style>
<path class="st0" d="M164.4,39.4h-83c-8.6,0-15.6,7-15.6,15.6v25.5H50.6c-3.7,0-7.3,1.3-10.1,3.8l-15,18c-3.5,3-5.4,7.3-5.4,11.8
	v13.6c0,8.6,7,15.6,15.6,15.6H38v0.3c0.2,9.6,8,17.4,17.7,17.4c9.8,0,17.7-7.9,17.7-17.7h37.8l0,0.3c0.2,9.6,8,17.4,17.7,17.4
	c9.8,0,17.7-7.9,17.7-17.7h18c8.6,0,15.6-7,15.6-15.6V55C180,46.4,173,39.4,164.4,39.4z M55.7,150.5c-4,0-7.3-3.3-7.3-7.3
	c0-4,3.3-7.3,7.3-7.3c4,0,7.3,3.3,7.3,7.3C63,147.2,59.7,150.5,55.7,150.5z M65.9,128.8c-2.9-2-6.4-3.3-10.2-3.3
	c-5.9,0-11.1,2.9-14.3,7.3h-5.8c-2.9,0-5.2-2.3-5.2-5.2V114c0-1.5,0.7-3,1.8-3.9l15-18c0.9-0.8,2.1-1.3,3.4-1.3h15.3V128.8z
	 M128.8,150.5c-4,0-7.3-3.3-7.3-7.3v-0.1c0.1-4,3.3-7.2,7.3-7.2c4,0,7.3,3.3,7.3,7.3C136.1,147.2,132.8,150.5,128.8,150.5z
	 M169.6,127.6c0,2.9-2.3,5.2-5.2,5.2h-21.4c-3.2-4.4-8.4-7.3-14.3-7.3c-5.9,0-11.1,2.9-14.3,7.3H76.3V55c0-2.9,2.3-5.2,5.2-5.2h83
	c2.9,0,5.2,2.3,5.2,5.2V127.6z"/>
<path class="st1" d="M144.5,95h-43C99,95,97,93,97,90.5v0c0-2.5,2-4.5,4.5-4.5h43c2.5,0,4.5,2,4.5,4.5v0C149,93,147,95,144.5,95z"/>
</svg>
