<?xml version="1.0" encoding="utf-8"?>
<!-- Generator: Adobe Illustrator 22.0.0, SVG Export Plug-In . SVG Version: 6.00 Build 0)  -->
<svg version="1.1" id="图层_1" xmlns="http://www.w3.org/2000/svg" xmlns:xlink="http://www.w3.org/1999/xlink" x="0px" y="0px"
	 viewBox="0 0 200 200" style="enable-background:new 0 0 200 200;" xml:space="preserve">
<style type="text/css">
	.st0{fill:#F4BE00;}
</style>
<g>
	<path class="st0" d="M119.7,117.2h-11c-0.8,0-1.5-0.6-1.7-1.4l-1.4-7c-0.2-0.8-0.9-1.4-1.8-1.4l-9,0.6c-1.1,0.1-1.8,1.1-1.6,2.1
		l1.2,5c0.2,1.1-0.6,2.1-1.7,2.1H79.7c-1.9,0-2.4-2.6-0.6-3.3c8.3-3.4,15.3-6.9,20.3-11.1c0.6-0.5,1.5-0.6,2.2-0.1
		c6.3,4.9,12.3,8.3,18.9,11.1C122.1,114.7,121.6,117.2,119.7,117.2z"/>
</g>
<g>
	<path class="st0" d="M100,9.6c-49.7,0-90,40.3-90,90c0,49.7,40.3,90,90,90c49.7,0,90-40.3,90-90C190,49.9,149.7,9.6,100,9.6z
		 M55.5,70.4c0-0.9,0.8-1.7,1.7-1.7H92c0.9,0,1.7-0.8,1.7-1.7S93,65.3,92,65.3H64.1c-1,0-1.7-0.8-1.7-1.7v-6.5
		c0-0.9,0.8-1.7,1.7-1.7h72.8c1,0,1.7,0.8,1.7,1.7v6.5c0,0.9-0.8,1.7-1.7,1.7h-28.4c-0.9,0-1.7,0.8-1.7,1.7s0.8,1.7,1.7,1.7h35.1
		c0.9,0,1.7,0.8,1.7,1.7V89c0,0.9-0.8,1.7-1.7,1.7h-9.8c-1,0-1.7-0.8-1.7-1.7V78.8c0-0.9-0.8-1.7-1.7-1.7h-21.9
		c-0.9,0-1.7,0.8-1.7,1.7V88c0,0.9-0.8,1.7-1.7,1.7h-9.7c-1,0-1.7-0.8-1.7-1.7v-9.2c0-0.9-0.8-1.7-1.7-1.7H70.2
		c-0.9,0-1.7,0.8-1.7,1.7v10.6c0,0.9-0.8,1.7-1.7,1.7h-9.6c-1,0-1.7-0.8-1.7-1.7V70.4z M129.6,82v3.5c0,0.9-0.8,1.7-1.7,1.7h-15.7
		c-0.9,0-1.7-0.8-1.7-1.7V82c0-0.9,0.8-1.7,1.7-1.7h15.7C128.8,80.3,129.6,81,129.6,82z M90.3,82v3.5c0,0.9-0.8,1.7-1.7,1.7H73.1
		c-1,0-1.7-0.8-1.7-1.7V82c0-0.9,0.8-1.7,1.7-1.7h15.5C89.5,80.3,90.3,81,90.3,82z M150.2,113.8l-3.8,8.1c-0.4,0.8-1.3,1.2-2.1,0.9
		c-2.9-1-5.6-2-8.3-2.9c-1.1-0.4-2.3,0.4-2.3,1.6v5.3c0,0.5-0.2,1-0.7,1.3c-2.5,1.9-9.2,6.8-14.2,10.2c-1.2,0.8-0.9,2.5,0.4,3
		c1.3,0.5,2.6,0.9,3.8,1.3c0.9,0.3,1.3,1.3,1,2.1l-2.5,7.9c-0.3,0.9-1.3,1.4-2.3,1.1c-12.8-5.2-34.3-11-46.1-14
		c-1-0.3-1.5-1.3-1.2-2.3L75,130c0.3-0.8,1.2-1.3,2-1c4.6,1.3,13.6,3.7,23.1,6.4c0.4,0.1,0.9,0.1,1.3-0.1c2.7-1.5,5.2-3.1,7.5-4.5
		c1.4-0.9,0.8-3.1-0.9-3.1H69.7c-0.9,0-1.7-0.8-1.7-1.7v-5.2c0-1.2-1.2-2-2.3-1.6l-10,3.5c-0.8,0.3-1.7-0.1-2.1-0.9l-3.8-7.8
		c-0.5-1,0-2.1,1.1-2.4c11.2-2.8,23.3-6.3,32.9-11.1c1.6-0.8,1-3.2-0.8-3.2h-9.9c-1,0-1.7-0.8-1.7-1.7v-4c0-0.9,0.8-1.7,1.7-1.7
		h15.5c0.9,0,1.7,0.8,1.7,1.7v1.7c0,1.4,1.7,2.2,2.8,1.3c0.6-0.5,1.3-1.1,1.9-1.6c0.3-0.3,0.7-0.4,1.1-0.4h8.4
		c0.3,0,0.7,0.1,0.9,0.3l2.3,1.5c1.1,0.8,2.7,0,2.7-1.4v-1.5c0-0.9,0.8-1.7,1.7-1.7h15.7c0.9,0,1.7,0.8,1.7,1.7v4
		c0,0.9-0.8,1.7-1.7,1.7h-9.4c-1.8,0-2.4,2.4-0.8,3.2c9.4,5,17.6,7.3,31.4,11C150.1,111.7,150.6,112.8,150.2,113.8z"/>
</g>
</svg>
