<?xml version="1.0" encoding="utf-8"?>
<!-- Generator: Adobe Illustrator 22.0.0, SVG Export Plug-In . SVG Version: 6.00 Build 0)  -->
<svg version="1.1" id="图层_1" xmlns="http://www.w3.org/2000/svg" xmlns:xlink="http://www.w3.org/1999/xlink" x="0px" y="0px"
	 viewBox="0 0 200 200" style="enable-background:new 0 0 200 200;" xml:space="preserve">
<style type="text/css">
	.st0{fill:#333333;}
	.st1{fill:#DD231D;}
</style>
<path class="st0" d="M149.9,184.8H50.2c-12.9,0-23.5-10.5-23.5-23.5v-109c0-12.9,10.5-23.5,23.5-23.5h11v10.4h-11
	c-7.2,0-13,5.8-13,13v109.1c0,7.2,5.8,13,13,13h99.7c7.2,0,13-5.8,13-13v-109c0-7.2-5.8-13-13-13h-11.1V28.8h11.1
	c12.9,0,23.5,10.5,23.5,23.5v109.1C173.3,174.3,162.8,184.8,149.9,184.8L149.9,184.8z"/>
<path class="st0" d="M120.8,24.8c5,0,9.1,4.1,9.1,9.1s-4.1,9.1-9.1,9.1H79.2c-5,0-9.1-4.1-9.1-9.1s4.1-9.1,9.1-9.1L120.8,24.8
	 M120.8,14.8H79.2c-10.6,0-19.1,8.6-19.1,19.1c0,10.6,8.6,19.1,19.1,19.1h41.6c10.6,0,19.1-8.6,19.1-19.1S131.4,14.8,120.8,14.8
	L120.8,14.8z"/>
<path class="st1" d="M123.6,123.1c-1.6-1.6-4.1-1.6-5.7,0l-13,13V81c0-2.2-1.8-4-4-4s-4,1.8-4,4v55l-13-13c-1.6-1.6-4.1-1.6-5.7,0
	c-1.6,1.6-1.6,4.1,0,5.7l19.8,19.8c1.6,1.6,4.1,1.6,5.7,0l19.8-19.8C125.2,127.1,125.2,124.6,123.6,123.1z"/>
</svg>
