<?xml version="1.0" encoding="utf-8"?>
<!-- Generator: Adobe Illustrator 22.0.0, SVG Export Plug-In . SVG Version: 6.00 Build 0)  -->
<svg version="1.1" id="图层_1" xmlns="http://www.w3.org/2000/svg" xmlns:xlink="http://www.w3.org/1999/xlink" x="0px" y="0px"
	 viewBox="0 0 200 200" style="enable-background:new 0 0 200 200;" xml:space="preserve">
<style type="text/css">
	.st0{fill:#333333;}
	.st1{fill:#DD231D;}
</style>
<path class="st0" d="M96.2,146.4c-23.6,0-42.8-19.4-42.8-43.2s19.2-43.2,42.8-43.2c3,0,5.9,0.3,8.7,0.9c3,0.7,5,3.6,4.5,6.8
	c-0.7,3.1-3.7,5.1-6.8,4.5c-2.1-0.5-4.2-0.7-6.4-0.7c-17.3,0-31.4,14.2-31.4,31.6s14.1,31.6,31.4,31.6c17.3,0,31.4-14.2,31.4-31.6
	c0-1.6-0.1-3.4-0.4-5c-0.5-3.1,1.6-6.1,4.8-6.6c3.1-0.5,6,1.6,6.6,4.8c0.4,2.2,0.5,4.5,0.5,6.7C139,127.1,119.9,146.4,96.2,146.4
	L96.2,146.4z"/>
<path class="st1" d="M98.9,107.2c-1.4,0-3-0.6-4-1.7c-2.2-2.2-2.2-5.9,0-8.2l30.6-30.8c2.2-2.2,5.8-2.2,8.1,0c2.2,2.2,2.2,5.8,0,8.2
	l-30.7,30.9C101.9,106.6,100.4,107.2,98.9,107.2z"/>
<path class="st0" d="M96.2,180c-42,0-76.2-34.4-76.2-76.7s34.2-76.7,76.2-76.7c5.1,0,10.3,0.5,15.3,1.5c3,0.7,5,3.6,4.5,6.8
	c-0.7,3.1-3.7,5.1-6.8,4.5c-4.3-0.9-8.7-1.3-13-1.3c-35.7,0-64.7,29.2-64.7,65.2s29,65.2,64.7,65.2s64.7-29.2,64.7-65.2
	c0-4.5-0.5-9.1-1.4-13.5c-0.6-3.1,1.3-6.1,4.4-6.8c3-0.7,6.1,1.3,6.8,4.4c1,5.2,1.6,10.6,1.6,15.8C172.3,145.6,138.3,180,96.2,180z"
	/>
<path class="st1" d="M158.1,76.4C158,76.4,158,76.4,158.1,76.4L129.9,76c-3-0.1-5.5-2.6-5.6-5.7l-0.5-28.2c0-1.5,0.6-3.1,1.7-4.1
	l16.2-16.3c1.6-1.6,4.1-2.1,6.2-1.2c2.1,0.9,3.5,3,3.5,5.3l0.4,22.7l22.6,0.4c2.3,0,4.4,1.4,5.2,3.6s0.4,4.6-1.2,6.2l-16.2,16.3
	C161,75.9,159.6,76.4,158.1,76.4z M135.6,64.5l20.1,0.4l5-5l-14.6-0.3c-3-0.1-5.5-2.6-5.6-5.7l-0.3-14.7l-5,5L135.6,64.5L135.6,64.5
	z"/>
</svg>
