<?xml version="1.0" encoding="utf-8"?>
<!-- Generator: Adobe Illustrator 22.0.0, SVG Export Plug-In . SVG Version: 6.00 Build 0)  -->
<svg version="1.1" id="图层_1" xmlns="http://www.w3.org/2000/svg" xmlns:xlink="http://www.w3.org/1999/xlink" x="0px" y="0px"
	 viewBox="0 0 200 200" style="enable-background:new 0 0 200 200;" xml:space="preserve">
<style type="text/css">
	.st0{fill:#333333;}
	.st1{fill:#DD231D;}
</style>
<path class="st0" d="M50.5,125.4c2-0.6,5,0.1,5,4.6c0,4.5-3.4,5.7-5,6.2c-11.7,3.5-18.9,8.2-18.9,13.4c0,10.7,30.7,19.5,68.6,19.5
	s68.6-8.7,68.6-19.5c0-5.2-7.1-9.9-18.7-13.4c-1.8-0.6-6.1-0.7-6.1-5.4c0-4.7,2.9-6.6,6.1-5.4c18.4,5.7,30.2,14.4,30.2,24.2
	c0,17.1-35.8,30.9-80,30.9s-80-13.8-80-30.9C20.1,139.8,32,131.1,50.5,125.4L50.5,125.4z"/>
<path class="st0" d="M100.2,20.5v10c13.8,0,26.7,6.1,35.5,16.7c14,17,14,41.6,0,58.5c-5.6,6.7-16.5,18-32.7,33.5
	c-1.5,1.5-4,1.5-5.6,0c-16.2-15.6-27.2-26.8-32.7-33.5C48.6,86.2,51.4,57.2,71,41c8.2-6.8,18.6-10.5,29.2-10.5L100.2,20.5
	 M100.2,20.5c-12.5,0-25.2,4.2-35.6,12.8C40.7,53,37.3,88.3,57,112.1c6.3,7.6,18.8,20.3,37.7,38.3c3.1,2.9,8,2.9,11.1,0
	c18.8-18,31.4-30.7,37.6-38.3c17.1-20.7,17.1-50.6,0-71.3C132.3,27.5,116.3,20.5,100.2,20.5L100.2,20.5z M100.2,155.7L100.2,155.7
	L100.2,155.7z"/>
<path class="st1" d="M100.1,58.4c4.8,0,9.3,1.9,12.7,5.3c3.4,3.4,5.3,7.9,5.3,12.7c0,9.9-8.1,18-18,18c-9.9,0-18-8.1-18-18
	c0-4.8,1.9-9.3,5.3-12.7C90.8,60.3,95.3,58.4,100.1,58.4L100.1,58.4 M100.1,50.4C100.1,50.4,100.1,50.4,100.1,50.4
	c-14.4,0-26,11.6-26,26c0,14.4,11.6,26,26,26c0,0,0,0,0,0c14.4,0,26-11.6,26-26C126.1,62.1,114.5,50.4,100.1,50.4L100.1,50.4z"/>
</svg>
