<?xml version="1.0" encoding="utf-8"?>
<!-- Generator: Adobe Illustrator 22.0.0, SVG Export Plug-In . SVG Version: 6.00 Build 0)  -->
<svg version="1.1" id="图层_1" xmlns="http://www.w3.org/2000/svg" xmlns:xlink="http://www.w3.org/1999/xlink" x="0px" y="0px"
	 viewBox="0 0 200 200" style="enable-background:new 0 0 200 200;" xml:space="preserve">
<style type="text/css">
	.st0{fill:#1DC4DD;}
</style>
<g>
	<path class="st0" d="M106.2,68l4.7,3.1c0.5,0.3,1.1,0.3,1.6,0c1.5-1,3.1-2.1,4.5-3c1.2-0.8,0.6-2.6-0.8-2.6H107
		C105.6,65.4,105,67.2,106.2,68z"/>
	<path class="st0" d="M119.5,92.6h10.1c0.8,0,1.4-0.6,1.4-1.4v-2c0-0.8-0.6-1.4-1.4-1.4h-10.1c-0.8,0-1.4,0.6-1.4,1.4v2
		C118,92,118.7,92.6,119.5,92.6z"/>
	<path class="st0" d="M95.3,92.6h9.6c0.8,0,1.4-0.6,1.4-1.4v-2c0-0.8-0.6-1.4-1.4-1.4h-9.6c-0.8,0-1.4,0.6-1.4,1.4v2
		C93.8,92,94.5,92.6,95.3,92.6z"/>
	<path class="st0" d="M119.5,108h10.1c0.8,0,1.4-0.6,1.4-1.4v-1.8c0-0.8-0.6-1.4-1.4-1.4h-10.1c-0.8,0-1.4,0.6-1.4,1.4v1.8
		C118,107.4,118.7,108,119.5,108z"/>
	<path class="st0" d="M100,9.6c-49.7,0-90,40.3-90,90s40.3,90,90,90s90-40.3,90-90S149.7,9.6,100,9.6z M56.3,58.8l8.4-5.2
		c0.6-0.4,1.4-0.2,1.9,0.3c3.3,4.4,8.5,12.8,11.6,18.3c0.4,0.7,0.1,1.5-0.5,1.9l-9.2,5.3c-0.7,0.4-1.6,0.1-2-0.6
		c-2.7-5.1-7.5-13.4-10.7-18C55.4,60.1,55.6,59.2,56.3,58.8z M149.9,138l-2,8.4c-0.1,0.6-0.6,1-1.2,1.1c-16.1,1.9-32.4,2.2-48.7,1
		c-13.5-0.8-21.3-2.4-28.2-10.5c-0.6-0.7-1.6-0.7-2.2,0c-2.4,2.9-6,7.2-9,10c-0.6,0.6-1.6,0.5-2.1-0.2L50,139
		c-0.4-0.6-0.3-1.4,0.2-1.9c4.3-3.6,8.1-7.2,11.6-11.2c0.2-0.3,0.4-0.6,0.4-0.9v-24.9c0-0.8-0.6-1.4-1.4-1.4h-6.1
		c-0.8,0-1.4-0.6-1.4-1.4V87c0-0.8,0.6-1.4,1.4-1.4h18.6c0.8,0,1.4,0.6,1.4,1.4v38c0,0.3,0.1,0.5,0.2,0.7c1.4,2.4,3,4.4,4.7,5.9
		c0.9,0.8,2.3,0.1,2.3-1.1V78.1c0-0.8,0.6-1.4,1.4-1.4h13.2c1.4,0,1.9-1.8,0.8-2.6L92.9,71c-0.7-0.5-0.8-1.4-0.3-2l1-1.3
		c0.7-0.9,0.1-2.3-1.1-2.3h-7.9c-0.8,0-1.4-0.6-1.4-1.4v-8.2c0-0.8,0.6-1.4,1.4-1.4h54.5c0.8,0,1.4,0.6,1.4,1.4v8.9
		c0,0.5-0.2,0.9-0.6,1.2c-3.5,2.4-8,5.3-12.4,8.1c-1.2,0.8-0.6,2.6,0.8,2.6h13c0.8,0,1.4,0.6,1.4,1.4v43.4c0,8.6-3.3,11.3-11.1,12.2
		l-4.6,0.4c-0.6,0.1-1.2-0.3-1.5-0.9l-2.9-7.9c-0.3-0.9,0.3-1.8,1.1-1.9l3.5-0.4c2.4-0.3,3.3-0.9,3.5-2.7c0.1-0.9-0.5-1.6-1.4-1.6
		h-10c-0.8,0-1.4,0.6-1.4,1.4v9.9c0,0.8-0.6,1.4-1.4,1.4h-8.9c-0.8,0-1.4-0.6-1.4-1.4v-9.9c0-0.8-0.6-1.4-1.4-1.4h-9.6
		c-0.8,0-1.4,0.6-1.4,1.4v12.1c0,0.8-0.6,1.4-1.4,1.4h0c-1.8,0-1.9,2.6-0.2,2.8c1.9,0.3,4,0.5,6.4,0.6c16.6,1.2,33.2,0.9,49.8-0.8
		C149.4,136.2,150.1,137,149.9,138z"/>
	<path class="st0" d="M95.3,108h9.6c0.8,0,1.4-0.6,1.4-1.4v-1.8c0-0.8-0.6-1.4-1.4-1.4h-9.6c-0.8,0-1.4,0.6-1.4,1.4v1.8
		C93.8,107.4,94.5,108,95.3,108z"/>
</g>
</svg>
