<?xml version="1.0" encoding="utf-8"?>
<!-- Generator: Adobe Illustrator 22.0.0, SVG Export Plug-In . SVG Version: 6.00 Build 0)  -->
<svg version="1.1" id="图层_1" xmlns="http://www.w3.org/2000/svg" xmlns:xlink="http://www.w3.org/1999/xlink" x="0px" y="0px"
	 viewBox="0 0 200 200" style="enable-background:new 0 0 200 200;" xml:space="preserve">
<style type="text/css">
	.st0{fill:#333333;}
	.st1{fill:#DD231D;}
</style>
<path class="st0" d="M100,27.3c2,0,4,0.6,5.7,1.8l60,41.3c2.7,1.9,4.3,4.9,4.3,8.2V163c0,5.5-4.5,10-10,10H40c-5.5,0-10-4.5-10-10
	V78.5c0-3.3,1.6-6.4,4.3-8.2l60-41.3C96,27.9,98,27.3,100,27.3 M100,17.3c-4,0-7.9,1.2-11.3,3.5L28.7,62c-5.4,3.7-8.7,9.9-8.7,16.5
	V163c0,11,9,20,20,20h120c11,0,20-9,20-20V78.5c0-6.6-3.2-12.7-8.7-16.5l-60-41.3C107.9,18.4,104,17.3,100,17.3L100,17.3z"/>
<g>
	<path class="st1" d="M78.9,115.1c-1.1,0-2.2-0.4-3.1-1.3l-9.3-9.3c-1-1-1.6-2.3-1.6-3.8c0-1.4,0.6-2.8,1.6-3.8l9.2-9.2
		c1.7-1.7,4.4-1.7,6.1,0s1.7,4.4,0,6.1l-6.9,6.9l6.9,6.9c1.7,1.7,1.7,4.4,0,6.1C81.2,114.7,80.1,115.1,78.9,115.1L78.9,115.1z"/>
	<path class="st1" d="M111.2,144H85.7c-2.4,0-4.3-1.9-4.3-4.3c0-2.4,1.9-4.3,4.3-4.3h25.4c8.4,0,15.2-6.8,15.2-15.2
		s-6.8-15.2-15.2-15.2H73.6c-2.4,0-4.3-1.9-4.3-4.3s1.9-4.3,4.3-4.3h37.6c13.1,0,23.8,10.7,23.8,23.8S124.3,144,111.2,144z"/>
</g>
</svg>
