<?xml version="1.0" standalone="no"?><!DOCTYPE svg PUBLIC "-//W3C//DTD SVG 1.1//EN" "http://www.w3.org/Graphics/SVG/1.1/DTD/svg11.dtd"><svg t="1659941775836" class="icon" viewBox="0 0 1024 1024" version="1.1" xmlns="http://www.w3.org/2000/svg" p-id="1441" xmlns:xlink="http://www.w3.org/1999/xlink" width="200" height="200"><defs><style type="text/css">@font-face { font-family: feedback-iconfont; src: url("//at.alicdn.com/t/font_1031158_u69w8yhxdu.woff2?t=1630033759944") format("woff2"), url("//at.alicdn.com/t/font_1031158_u69w8yhxdu.woff?t=1630033759944") format("woff"), url("//at.alicdn.com/t/font_1031158_u69w8yhxdu.ttf?t=1630033759944") format("truetype"); }
</style></defs><path d="M522.54 480.9m32 0l218.51 0q32 0 32 32l0 0q0 32-32 32l-218.51 0q-32 0-32-32l0 0q0-32 32-32Z" fill="#999999" p-id="1442"></path><path d="M863.93 513.66l-119.3-98.39v196.79l119.3-98.4zM575.94 669.82v96.86a34.39 34.39 0 0 1-34.39 34.39H290a34.4 34.4 0 0 1-34.4-34.39V259.1a34.39 34.39 0 0 1 34.4-34.39h251.55a34.39 34.39 0 0 1 34.39 34.39V354a31.76 31.76 0 0 0 31.76 31.76h2.14a30.1 30.1 0 0 0 30.1-30.1V259.1a98.39 98.39 0 0 0-98.39-98.39H290a98.39 98.39 0 0 0-98.4 98.39v507.58a98.39 98.39 0 0 0 98.4 98.39h251.55a98.39 98.39 0 0 0 98.39-98.39V675.8a35 35 0 0 0-35-35 29 29 0 0 0-29 29.02z" fill="#999999" p-id="1443"></path></svg>