<?xml version="1.0" encoding="utf-8"?>
<!-- Generator: Adobe Illustrator 22.0.0, SVG Export Plug-In . SVG Version: 6.00 Build 0)  -->
<svg version="1.1" id="图层_1" xmlns="http://www.w3.org/2000/svg" xmlns:xlink="http://www.w3.org/1999/xlink" x="0px" y="0px"
	 viewBox="0 0 200 200" style="enable-background:new 0 0 200 200;" xml:space="preserve">
<style type="text/css">
	.st0{fill:#333333;}
	.st1{fill:#DD231D;}
</style>
<path class="st0" d="M155.9,177.1H43.4c-17.6,0-32-14.4-32-32v-15.3c0-4.7,3-8.9,7.6-10.3c9-2.9,15-11.1,15-20.5
	c0-9.4-6-17.7-15-20.6c-4.5-1.4-7.6-5.6-7.6-10.3V53.5c0-17.6,14.4-32,32-32h112.6c17.6,0,32,14.4,32,32v14.1
	c0,4.9-3.3,9.2-8.1,10.5c-9.4,2.5-16,11.1-16,20.8s6.6,18.3,16,20.8c4.8,1.3,8.1,5.6,8.1,10.5v14.8
	C187.9,162.8,173.6,177.1,155.9,177.1L155.9,177.1z M23.4,130.7v14.4c0,11,9,20,20,20h112.6c11,0,20-9,20-20v-13.9
	c-14.3-4.2-24.1-17.3-24.1-32.2s9.9-28.1,24.1-32.2V53.5c0-11-9-20-20-20H43.4c-11,0-20,9-20,20v13.7C36.9,72,46,84.6,46,99
	S36.9,126,23.4,130.7z"/>
<g>
	<path class="st1" d="M115.6,97.3h2.2c1.4,0,2.6,1.2,2.6,2.6v2.2c0,1.4-1.2,2.6-2.6,2.6h-7.7c-1.4,0-2.6,1.2-2.6,2.6l0,0
		c0,1.4,1.2,2.6,2.6,2.6h7.7c1.4,0,2.6,1.2,2.6,2.6v2.2c0,1.4-1.2,2.6-2.6,2.6h-7.7c-1.4,0-2.6,1.2-2.6,2.6v8.5
		c0,1.4-1.2,2.6-2.6,2.6H95c-1.4,0-2.6-1.2-2.6-2.6v-8.5c0-1.4-1.2-2.6-2.6-2.6h-7.6c-1.4,0-2.6-1.2-2.6-2.6v-2.2
		c0-1.4,1.2-2.6,2.6-2.6h7.6c1.4,0,2.6-1.2,2.6-2.6l0,0c0-1.4-1.2-2.6-2.6-2.6h-7.6c-1.4,0-2.6-1.2-2.6-2.6v-2.2
		c0-1.4,1.2-2.6,2.6-2.6h2.5c1.9,0,3.2-2.1,2.3-3.8l-9.8-18.6c-0.9-1.7,0.3-3.8,2.3-3.8h11.1c1.1,0,2,0.6,2.4,1.6l7,17.4h0.5
		l7.7-17.5c0.4-0.9,1.3-1.5,2.4-1.5h10.7c2,0,3.2,2.1,2.3,3.8l-10.2,18.5C112.4,95.2,113.6,97.3,115.6,97.3z"/>
</g>
</svg>
