<?xml version="1.0" encoding="utf-8"?>
<!-- Generator: Adobe Illustrator 22.0.0, SVG Export Plug-In . SVG Version: 6.00 Build 0)  -->
<svg version="1.1" id="图层_1" xmlns="http://www.w3.org/2000/svg" xmlns:xlink="http://www.w3.org/1999/xlink" x="0px" y="0px"
	 viewBox="0 0 200 200" style="enable-background:new 0 0 200 200;" xml:space="preserve">
<style type="text/css">
	.st0{fill:#333333;}
	.st1{fill:#DD231D;}
</style>
<path class="st0" d="M149.9,184.8H50.2c-12.9,0-23.5-10.5-23.5-23.5V52.3c0-12.9,10.5-23.5,23.5-23.5h11v10.4h-11
	c-7.2,0-13,5.8-13,13v109.1c0,7.2,5.8,13,13,13h99.7c7.2,0,13-5.8,13-13V52.3c0-7.2-5.8-13-13-13h-11.1V28.8h11.1
	c12.9,0,23.5,10.5,23.5,23.5v109.1C173.3,174.3,162.8,184.8,149.9,184.8L149.9,184.8z"/>
<path class="st0" d="M120.8,24.8c5,0,9.1,4.1,9.1,9.1c0,5-4.1,9.1-9.1,9.1H79.2c-5,0-9.1-4.1-9.1-9.1s4.1-9.1,9.1-9.1H120.8
	 M120.8,14.8H79.2c-10.6,0-19.1,8.6-19.1,19.1c0,10.6,8.6,19.1,19.1,19.1h41.6c10.6,0,19.1-8.6,19.1-19.1
	C139.9,23.4,131.4,14.8,120.8,14.8L120.8,14.8z"/>
<g>
	<path class="st1" d="M78.9,112.1c-1.1,0-2.2-0.4-3.1-1.3l-9.3-9.3c-1-1-1.6-2.3-1.6-3.8c0-1.4,0.6-2.8,1.6-3.8l9.2-9.2
		c1.7-1.7,4.4-1.7,6.1,0c1.7,1.7,1.7,4.4,0,6.1l-6.9,6.9l6.9,6.9c1.7,1.7,1.7,4.4,0,6.1C81.2,111.7,80.1,112.1,78.9,112.1
		L78.9,112.1z"/>
	<path class="st1" d="M111.2,141H85.7c-2.4,0-4.3-1.9-4.3-4.3c0-2.4,1.9-4.3,4.3-4.3h25.4c8.4,0,15.2-6.8,15.2-15.2
		s-6.8-15.2-15.2-15.2H73.6c-2.4,0-4.3-1.9-4.3-4.3s1.9-4.3,4.3-4.3h37.6c13.1,0,23.8,10.7,23.8,23.8C135,130.3,124.3,141,111.2,141
		z"/>
</g>
</svg>
