<?xml version="1.0" encoding="utf-8"?>
<!-- Generator: Adobe Illustrator 22.0.0, SVG Export Plug-In . SVG Version: 6.00 Build 0)  -->
<svg version="1.1" id="图层_1" xmlns="http://www.w3.org/2000/svg" xmlns:xlink="http://www.w3.org/1999/xlink" x="0px" y="0px"
	 viewBox="0 0 200 200" style="enable-background:new 0 0 200 200;" xml:space="preserve">
<path d="M100.1,19.6c21,0,38.1,15.2,38.1,33.9s-17.1,33.9-38.1,33.9S62,72.2,62,53.5S79.1,19.6,100.1,19.6 M122.9,130.6
	c13.8,0,26.8,4.9,36.6,13.9c8.8,8.1,13.9,18.5,14.6,29.6c-1.2,0.9-3.5,2.4-7.2,3.8c-4.7,1.8-9.1,2.6-11.3,2.6H44.7
	c-2.2,0-6.6-0.8-11.3-2.6c-3.7-1.4-6-2.9-7.2-3.8c0.7-11.1,5.8-21.5,14.6-29.6c9.8-9,22.8-13.9,36.6-13.9H122.9 M100.1,5.6
	C71.3,5.6,48,27.1,48,53.5c0,26.5,23.3,47.9,52.1,47.9s52.1-21.5,52.1-47.9S128.9,5.6,100.1,5.6L100.1,5.6z M122.9,116.6H77.3
	c-35.8,0-65.2,27-65.2,59.9c0,9.9,21.8,18,32.6,18h110.8c10.8,0,32.6-8.1,32.6-18C188.1,143.5,158.7,116.6,122.9,116.6L122.9,116.6z
	"/>
</svg>
