<?xml version="1.0" encoding="utf-8"?>
<!-- Generator: Adobe Illustrator 22.0.0, SVG Export Plug-In . SVG Version: 6.00 Build 0)  -->
<svg version="1.1" id="图层_1" xmlns="http://www.w3.org/2000/svg" xmlns:xlink="http://www.w3.org/1999/xlink" x="0px" y="0px"
	 viewBox="0 0 200 200" style="enable-background:new 0 0 200 200;" xml:space="preserve">
<style type="text/css">
	.st0{fill:#DD231D;}
	.st1{fill:#333333;}
</style>
<path class="st0" d="M97,25c16.5,0,30,13.5,30,30s-13.5,30-30,30S67,71.5,67,55S80.5,25,97,25 M97,15c-22.1,0-40,17.9-40,40
	s17.9,40,40,40s40-17.9,40-40S119.1,15,97,15L97,15z"/>
<path class="st1" d="M142.3,115c9.1,0,16.7,6.8,17.9,15.8l3,24c0.6,5.2-0.9,10.2-4.4,14.1c-3.5,3.9-8.3,6.1-13.5,6.1H48.7
	c-5.2,0-10-2.2-13.5-6.1c-3.5-3.9-5-8.9-4.4-14.1l3-24c1.1-9,8.8-15.8,17.9-15.8H142.3 M142.3,105H51.7c-14.1,0-26,10.5-27.8,24.5
	l-3,24C18.8,170.2,31.9,185,48.7,185h96.6c16.8,0,29.9-14.8,27.8-31.5l-3-24C168.3,115.5,156.4,105,142.3,105L142.3,105z"/>
</svg>
