<?xml version="1.0" encoding="utf-8"?>
<!-- Generator: Adobe Illustrator 22.0.0, SVG Export Plug-In . SVG Version: 6.00 Build 0)  -->
<svg version="1.1" id="图层_1" xmlns="http://www.w3.org/2000/svg" xmlns:xlink="http://www.w3.org/1999/xlink" x="0px" y="0px"
	 viewBox="0 0 200 200" style="enable-background:new 0 0 200 200;" xml:space="preserve">
<style type="text/css">
	.st0{fill:#333333;}
	.st1{fill:#DD231D;}
</style>
<path class="st0" d="M156.9,178.1H44.4c-17.6,0-32-14.4-32-32v-15.3c0-4.7,3-8.9,7.6-10.3c9-2.9,15-11.1,15-20.5
	c0-9.4-6-17.7-15-20.6c-4.5-1.4-7.6-5.6-7.6-10.3V54.5c0-17.6,14.4-32,32-32h112.6c17.6,0,32,14.4,32,32v14.1
	c0,4.9-3.3,9.2-8.1,10.5c-9.4,2.5-16,11.1-16,20.8s6.6,18.3,16,20.8c4.8,1.3,8.1,5.6,8.1,10.5v14.8
	C188.9,163.8,174.6,178.1,156.9,178.1L156.9,178.1z M24.4,131.7v14.4c0,11,9,20,20,20h112.6c11,0,20-9,20-20v-13.9
	c-14.3-4.2-24.1-17.3-24.1-32.2s9.9-28.1,24.1-32.2V54.5c0-11-9-20-20-20H44.4c-11,0-20,9-20,20v13.7C37.9,73,47,85.6,47,100
	S37.9,127,24.4,131.7z"/>
<path class="st1" d="M126.9,86.2H75.1c-3.3,0-6-2.7-6-6s2.7-6,6-6h51.8c3.3,0,6,2.7,6,6C132.9,83.5,130.2,86.2,126.9,86.2z
	 M126.9,128.9H75.1c-3.3,0-6-2.7-6-6c0-3.3,2.7-6,6-6h51.8c3.3,0,6,2.7,6,6S130.2,128.9,126.9,128.9z"/>
</svg>
