<?xml version="1.0" encoding="utf-8"?>
<!-- Generator: Adobe Illustrator 22.0.0, SVG Export Plug-In . SVG Version: 6.00 Build 0)  -->
<svg version="1.1" id="图层_1" xmlns="http://www.w3.org/2000/svg" xmlns:xlink="http://www.w3.org/1999/xlink" x="0px" y="0px"
	 viewBox="0 0 200 200" style="enable-background:new 0 0 200 200;" xml:space="preserve">
<style type="text/css">
	.st0{fill:#1DC4DD;}
</style>
<g>
	<path class="st0" d="M100,9.6c-49.7,0-90,40.3-90,90c0,49.7,40.3,90,90,90c49.7,0,90-40.3,90-90C190,49.9,149.7,9.6,100,9.6z
		 M63.2,58.6c0-1.7,1.3-3,3-3h68.6c1.7,0,3,1.3,3,3v7.8c0,1.7-1.3,3-3,3H66.2c-1.7,0-3-1.3-3-3V58.6z M147.2,95.4c0,1.7-1.3,3-3,3
		h-40.1c-1.1,0-2,0.6-2.6,1.5c-4.9,8.3-11.4,17.8-16.3,24c-1.6,2,0,5,2.6,4.8c7.9-0.6,17.1-1.3,25.7-1.9c2.3-0.2,3.5-2.7,2.3-4.6
		c-2.1-3.3-4.3-6.5-6.5-9.8c-1-1.4-0.5-3.4,1-4.3l6.5-3.8c1.3-0.8,3.1-0.4,4,0.8c7,9.9,14,21.1,21.3,33.4c0.8,1.3,0.5,3-0.8,3.9
		c-1.9,1.4-4.5,3.3-6.5,4.8c-1.4,1-3.5,0.6-4.4-0.9c-1-1.8-2-3.5-3-5.2c-0.6-1-1.6-1.6-2.8-1.5c-13.8,0.9-41,2.8-55,4.1
		c-2,0.2-3.7,0.3-5.3,0.5c-1.5,0.2-2.8-0.8-3.2-2.2l-2.5-9.1c-0.4-1.4,0.3-2.8,1.5-3.5c2.2-1.2,3.2-2.5,5.7-4.5
		c0.1,0,0.1-0.1,0.2-0.2c4-3.8,11-12.6,16.7-21.8c1.3-2-0.2-4.6-2.5-4.6H56.7c-1.7,0-3-1.3-3-3v-7.8c0-1.7,1.3-3,3-3h87.5
		c1.7,0,3,1.3,3,3V95.4z"/>
</g>
</svg>
