<?xml version="1.0" encoding="utf-8"?>
<!-- Generator: Adobe Illustrator 22.0.0, SVG Export Plug-In . SVG Version: 6.00 Build 0)  -->
<svg version="1.1" id="图层_1" xmlns="http://www.w3.org/2000/svg" xmlns:xlink="http://www.w3.org/1999/xlink" x="0px" y="0px"
	 viewBox="0 0 200 200" style="enable-background:new 0 0 200 200;" xml:space="preserve">
<style type="text/css">
	.st0{fill:#333333;}
	.st1{fill:#DD231D;}
</style>
<path class="st0" d="M149.9,184.8H50.2c-12.9,0-23.5-10.5-23.5-23.5v-109c0-12.9,10.5-23.5,23.5-23.5h11v10.4h-11
	c-7.2,0-13,5.8-13,13v109.1c0,7.2,5.8,13,13,13h99.7c7.2,0,13-5.8,13-13v-109c0-7.2-5.8-13-13-13h-11.1V28.8h11.1
	c12.9,0,23.5,10.5,23.5,23.5v109.1C173.3,174.3,162.8,184.8,149.9,184.8L149.9,184.8z"/>
<path class="st0" d="M120.8,24.8c5,0,9.1,4.1,9.1,9.1s-4.1,9.1-9.1,9.1H79.2c-5,0-9.1-4.1-9.1-9.1s4.1-9.1,9.1-9.1L120.8,24.8
	 M120.8,14.8H79.2c-10.6,0-19.1,8.6-19.1,19.1c0,10.6,8.6,19.1,19.1,19.1h41.6c10.6,0,19.1-8.6,19.1-19.1S131.4,14.8,120.8,14.8
	L120.8,14.8z"/>
<path class="st1" d="M97.5,92.3c5.1,0,9.7,2.4,12.4,6.6c2,3.1,5.3,5.2,8.9,5.7c7.7,1.2,13.3,7.3,13.3,14.6c0,8.2-6.5,14.9-14.6,14.9
	H80.2c-6.9-0.4-12.3-5.4-12.3-11.2c0-4.3,3-8.3,7.5-10.1c4-1.6,6.9-5.1,7.8-9.4C84.6,96.9,90.6,92.3,97.5,92.3 M97.5,84.3
	c-10.9,0-20,7.4-22.1,17.3c-0.3,1.6-1.5,3-3,3.6c-7.4,3-12.5,9.7-12.5,17.5c0,10.2,8.9,18.7,20.1,19.2h37.7
	c12.5,0,22.6-10.2,22.6-22.9c0-11.4-8.7-20.8-20.1-22.6c-1.4-0.2-2.7-1-3.5-2.2C112.6,88.3,105.6,84.3,97.5,84.3L97.5,84.3z"/>
</svg>
