<?xml version="1.0" encoding="utf-8"?>
<!-- Generator: Adobe Illustrator 22.0.0, SVG Export Plug-In . SVG Version: 6.00 Build 0)  -->
<svg version="1.1" id="图层_1" xmlns="http://www.w3.org/2000/svg" xmlns:xlink="http://www.w3.org/1999/xlink" x="0px" y="0px"
	 viewBox="0 0 200 200" style="enable-background:new 0 0 200 200;" xml:space="preserve">
<style type="text/css">
	.st0{fill:#333333;}
	.st1{fill:#DD231D;}
</style>
<path class="st0" d="M77,183.7H39.3c-11.6,0-21-9.4-21-21V77.2c0-7,3.5-13.5,9.2-17.4l59.1-39.9c7-4.8,16.2-4.8,23.3-0.1l60.9,40.1
	c5.9,3.9,9.5,10.5,9.5,17.5v33.3c0,2.8-2.2,5-5,5s-5-2.2-5-5V77.3c0-3.7-1.9-7.2-5-9.2L104.4,28c-3.7-2.4-8.5-2.4-12.2,0.1l-59,40
	c-3,2-4.8,5.5-4.8,9.1v85.5c0,6.1,4.9,11,11,11H77c2.8,0,5,2.2,5,5S79.8,183.7,77,183.7z"/>
<path class="st1" d="M131.5,128.3c5.1,0,9.8,2.4,12.6,6.4c2,3,5.3,5,8.9,5.6c7.7,1.2,13.3,7.4,13.3,14.7c0,8.2-6.5,14.9-14.6,14.9
	h-37.5c-6.8-0.4-12.3-5.4-12.3-11.2c0-4.3,2.9-8.2,7.5-10.1c4-1.6,7-5.2,7.9-9.4C118.6,132.9,124.6,128.3,131.5,128.3 M131.5,120.3
	c-10.9,0-20,7.4-22.1,17.3c-0.3,1.6-1.5,3-3,3.6c-7.4,3-12.5,9.7-12.5,17.5c0,10.2,8.9,18.7,20.1,19.2h37.7
	c12.5,0,22.6-10.2,22.6-22.9c0-11.4-8.7-20.8-20.1-22.6c-1.4-0.2-2.7-1-3.5-2.2C146.6,124.3,139.6,120.3,131.5,120.3L131.5,120.3z"
	/>
</svg>
