<?xml version="1.0" encoding="utf-8"?>
<!-- Generator: Adobe Illustrator 22.0.0, SVG Export Plug-In . SVG Version: 6.00 Build 0)  -->
<svg version="1.1" id="图层_1" xmlns="http://www.w3.org/2000/svg" xmlns:xlink="http://www.w3.org/1999/xlink" x="0px" y="0px"
	 viewBox="0 0 200 200" style="enable-background:new 0 0 200 200;" xml:space="preserve">
<style type="text/css">
	.st0{fill:#B7DD1D;}
</style>
<g>
	<path class="st0" d="M113.2,73.8H104c-0.8,0-1.4,0.6-1.4,1.4v0.4c0,1.1,1.2,1.8,2.1,1.2l2.9-1.8c0.6-0.4,1.4-0.2,1.8,0.3
		c0.9,1.2,1.8,2.4,2.6,3.7c0.8,1.2,2.6,0.6,2.6-0.8v-3.1C114.6,74.4,114,73.8,113.2,73.8z M112.5,88.1l-2.6,1.7
		c-0.7,0.4-1.6,0.2-2-0.5c-0.8-1.5-1.7-3.2-2.7-4.8c-0.7-1.2-2.6-0.6-2.6,0.8v4.4c0,0.8,0.6,1.4,1.4,1.4h9.2c0.8,0,1.4-0.6,1.4-1.4
		v-0.4C114.6,88.2,113.4,87.5,112.5,88.1z M135.3,73.8h-9c-0.8,0-1.4,0.6-1.4,1.4v4c0,1.5,2,1.9,2.6,0.6c0.6-1.3,1.2-2.6,1.7-3.8
		c0.3-0.8,1.2-1.1,2-0.7l3.4,2c0.9,0.5,2.1-0.1,2.1-1.2v-0.8C136.7,74.4,136.1,73.8,135.3,73.8z M134.1,86.8
		c-0.7,1.2-1.4,2.2-2.1,3.1c-0.4,0.5-1.2,0.7-1.8,0.4l-3.3-1.8c-0.9-0.5-2.1,0.2-2.1,1.2c0,0.8,0.6,1.4,1.4,1.4h9
		c0.8,0,1.4-0.6,1.4-1.4v-2.2C136.7,86,134.9,85.5,134.1,86.8z M134.1,86.8c-0.7,1.2-1.4,2.2-2.1,3.1c-0.4,0.5-1.2,0.7-1.8,0.4
		l-3.3-1.8c-0.9-0.5-2.1,0.2-2.1,1.2c0,0.8,0.6,1.4,1.4,1.4h9c0.8,0,1.4-0.6,1.4-1.4v-2.2C136.7,86,134.9,85.5,134.1,86.8z
		 M135.3,73.8h-9c-0.8,0-1.4,0.6-1.4,1.4v4c0,1.5,2,1.9,2.6,0.6c0.6-1.3,1.2-2.6,1.7-3.8c0.3-0.8,1.2-1.1,2-0.7l3.4,2
		c0.9,0.5,2.1-0.1,2.1-1.2v-0.8C136.7,74.4,136.1,73.8,135.3,73.8z M112.5,88.1l-2.6,1.7c-0.7,0.4-1.6,0.2-2-0.5
		c-0.8-1.5-1.7-3.2-2.7-4.8c-0.7-1.2-2.6-0.6-2.6,0.8v4.4c0,0.8,0.6,1.4,1.4,1.4h9.2c0.8,0,1.4-0.6,1.4-1.4v-0.4
		C114.6,88.2,113.4,87.5,112.5,88.1z M113.2,73.8H104c-0.8,0-1.4,0.6-1.4,1.4v0.4c0,1.1,1.2,1.8,2.1,1.2l2.9-1.8
		c0.6-0.4,1.4-0.2,1.8,0.3c0.9,1.2,1.8,2.4,2.6,3.7c0.8,1.2,2.6,0.6,2.6-0.8v-3.1C114.6,74.4,114,73.8,113.2,73.8z M100,9.6
		c-49.7,0-90,40.3-90,90c0,49.7,40.3,90,90,90c49.7,0,90-40.3,90-90C190,49.9,149.7,9.6,100,9.6z M55.8,57.6c0-0.8,0.6-1.4,1.4-1.4
		h31.3c0.8,0,1.4,0.6,1.4,1.4v61.7c0,0.8-0.6,1.4-1.4,1.4h-6c-0.8,0-1.4-0.6-1.4-1.4V70.3c0-0.8-0.6-1.4-1.4-1.4H66.8
		c-0.8,0-1.4,0.6-1.4,1.4v49.3c0,0.8-0.6,1.4-1.4,1.4h-6.9c-0.8,0-1.4-0.6-1.4-1.4V57.6z M93.1,138.9l-5.5,7.4
		c-0.6,0.8-1.7,0.7-2.2,0c-2.8-3.8-6.8-8.8-10.5-13.1c-0.6-0.7-1.8-0.6-2.3,0.2c-2.8,5.1-6.9,10.1-13,16.6c-0.5,0.6-1.4,0.6-2,0.1
		l-7-6.8c-0.6-0.6-0.6-1.5,0-2c9.3-8.3,18.1-15.1,18.1-36V73.8c0-0.8,0.7-1.4,1.5-1.4l6.1,0.3c0.7,0,1.3,0.6,1.3,1.4V111
		c0,3.1-0.2,5.9-0.5,8.5c0,0.4,0.1,0.8,0.4,1.1c4.7,4.7,12.2,12.1,15.5,16.7C93.5,137.8,93.5,138.5,93.1,138.9z M142.3,146.8
		c0,0.8-0.6,1.4-1.4,1.4H97.9c-0.8,0-1.4-0.6-1.4-1.4v-40c0-0.8,0.6-1.4,1.4-1.4H141c0.8,0,1.4,0.6,1.4,1.4V146.8z M147.4,100.4
		c0,0.8-0.6,1.4-1.4,1.4H94.3c-0.8,0-1.4-0.6-1.4-1.4v-36c0-0.8,0.6-1.4,1.4-1.4h6.8c1,0,1.6-0.9,1.3-1.8l-2.1-5.9
		c-0.3-0.9,0.3-1.8,1.2-1.8l9.4-0.8c0.7-0.1,1.3,0.4,1.5,1l2.2,8.3c0.2,0.6,0.7,1,1.3,1h7.4c0.6,0,1.1-0.4,1.3-1l2.7-8.5
		c0.2-0.6,0.8-1,1.5-1l9.4,0.8c0.9,0.1,1.5,1,1.2,1.9l-2.2,5.9c-0.3,0.9,0.3,1.9,1.3,1.9h7.6c0.8,0,1.4,0.6,1.4,1.4V100.4z
		 M134.1,86.8c-0.7,1.2-1.4,2.2-2.1,3.1c-0.4,0.5-1.2,0.7-1.8,0.4l-3.3-1.8c-0.9-0.5-2.1,0.2-2.1,1.2c0,0.8,0.6,1.4,1.4,1.4h9
		c0.8,0,1.4-0.6,1.4-1.4v-2.2C136.7,86,134.9,85.5,134.1,86.8z M135.3,73.8h-9c-0.8,0-1.4,0.6-1.4,1.4v4c0,1.5,2,1.9,2.6,0.6
		c0.6-1.3,1.2-2.6,1.7-3.8c0.3-0.8,1.2-1.1,2-0.7l3.4,2c0.9,0.5,2.1-0.1,2.1-1.2v-0.8C136.7,74.4,136.1,73.8,135.3,73.8z
		 M129.8,131.5h-20.8c-0.8,0-1.4,0.6-1.4,1.4v2.7c0,0.8,0.6,1.4,1.4,1.4h20.8c0.8,0,1.4-0.6,1.4-1.4v-2.7
		C131.2,132.2,130.6,131.5,129.8,131.5z M129.8,115.4h-20.8c-0.8,0-1.4,0.6-1.4,1.4v2.3c0,0.8,0.6,1.4,1.4,1.4h20.8
		c0.8,0,1.4-0.6,1.4-1.4v-2.3C131.2,116,130.6,115.4,129.8,115.4z M112.5,88.1l-2.6,1.7c-0.7,0.4-1.6,0.2-2-0.5
		c-0.8-1.5-1.7-3.2-2.7-4.8c-0.7-1.2-2.6-0.6-2.6,0.8v4.4c0,0.8,0.6,1.4,1.4,1.4h9.2c0.8,0,1.4-0.6,1.4-1.4v-0.4
		C114.6,88.2,113.4,87.5,112.5,88.1z M113.2,73.8H104c-0.8,0-1.4,0.6-1.4,1.4v0.4c0,1.1,1.2,1.8,2.1,1.2l2.9-1.8
		c0.6-0.4,1.4-0.2,1.8,0.3c0.9,1.2,1.8,2.4,2.6,3.7c0.8,1.2,2.6,0.6,2.6-0.8v-3.1C114.6,74.4,114,73.8,113.2,73.8z"/>
</g>
</svg>
