<?xml version="1.0" encoding="utf-8"?>
<!-- Generator: Adobe Illustrator 22.0.0, SVG Export Plug-In . SVG Version: 6.00 Build 0)  -->
<svg version="1.1" id="图层_1" xmlns="http://www.w3.org/2000/svg" xmlns:xlink="http://www.w3.org/1999/xlink" x="0px" y="0px"
	 viewBox="0 0 200 200" style="enable-background:new 0 0 200 200;" xml:space="preserve">
<style type="text/css">
	.st0{fill:#333333;}
	.st1{fill:#DD231D;}
</style>
<path class="st0" d="M155.9,177.1H43.4c-17.6,0-32-14.4-32-32v-15.3c0-4.7,3-8.9,7.6-10.3c9-2.9,15-11.1,15-20.5
	c0-9.4-6-17.7-15-20.6c-4.5-1.4-7.6-5.6-7.6-10.3V53.5c0-17.6,14.4-32,32-32h112.6c17.6,0,32,14.4,32,32v14.1
	c0,4.9-3.3,9.2-8.1,10.5c-9.4,2.5-16,11.1-16,20.8s6.6,18.3,16,20.8c4.8,1.3,8.1,5.6,8.1,10.5v14.8
	C187.9,162.8,173.6,177.1,155.9,177.1L155.9,177.1z M23.4,130.7v14.4c0,11,9,20,20,20h112.6c11,0,20-9,20-20v-13.9
	c-14.3-4.2-24.1-17.3-24.1-32.2s9.9-28.1,24.1-32.2V53.5c0-11-9-20-20-20H43.4c-11,0-20,9-20,20v13.7C36.9,72,46,84.6,46,99
	S36.9,126,23.4,130.7z"/>
<g>
	<path class="st1" d="M69.8,86.3c0-12.5,5-16,12.7-16c7.9,0,12.9,3.4,12.9,16c0,12.7-5,16-12.9,16C74.7,102.4,69.8,99,69.8,86.3z
		 M114.1,71.2h0.7c3.1,0,5,3.3,3.5,6L90,127.4c-0.7,1.3-2,2-3.5,2H86c-3.1,0-5-3.3-3.5-6l28.1-50.3C111.3,72,112.6,71.2,114.1,71.2z
		 M85.8,86.3c0-6.9-0.8-8.5-3.4-8.5c-2.4,0-3.3,1.6-3.3,8.5c0,7,0.8,8.4,3.3,8.4C85,94.7,85.8,93.3,85.8,86.3z M105.3,114.3
		c0-12.5,5-16,12.7-16c7.9,0,12.9,3.4,12.9,16c0,12.7-5,16-12.9,16C110.2,130.3,105.3,127,105.3,114.3z M121.4,114.3
		c0-6.9-0.9-8.5-3.4-8.5c-2.4,0-3.3,1.6-3.3,8.5c0,7,0.8,8.4,3.3,8.4C120.5,122.7,121.4,121.3,121.4,114.3z"/>
</g>
</svg>
