<?xml version="1.0" encoding="utf-8"?>
<!-- Generator: Adobe Illustrator 22.0.0, SVG Export Plug-In . SVG Version: 6.00 Build 0)  -->
<svg version="1.1" id="图层_1" xmlns="http://www.w3.org/2000/svg" xmlns:xlink="http://www.w3.org/1999/xlink" x="0px" y="0px"
	 viewBox="0 0 200 200" style="enable-background:new 0 0 200 200;" xml:space="preserve">
<style type="text/css">
	.st0{fill:#DD231D;}
</style>
<path d="M100,27.3c2,0,4,0.6,5.7,1.8l60,41.3c2.7,1.9,4.3,4.9,4.3,8.2V163c0,5.5-4.5,10-10,10H40c-5.5,0-10-4.5-10-10V78.5
	c0-3.3,1.6-6.4,4.3-8.2l60-41.3C96,27.9,98,27.3,100,27.3 M100,17.3c-4,0-7.9,1.2-11.3,3.5L28.7,62c-5.4,3.7-8.7,9.9-8.7,16.5V163
	c0,11,9,20,20,20h120c11,0,20-9,20-20V78.5c0-6.6-3.2-12.7-8.7-16.5l-60-41.3C107.9,18.4,104,17.3,100,17.3L100,17.3z"/>
<g>
	<path class="st0" d="M87,155.5H73c-6.6,0-12-5.4-12-12v-14c0-6.6,5.4-12,12-12h14c6.6,0,12,5.4,12,12v14
		C99,150.1,93.6,155.5,87,155.5z M73,125.5c-2.2,0-4,1.8-4,4v14c0,2.2,1.8,4,4,4h14c2.2,0,4-1.8,4-4v-14c0-2.2-1.8-4-4-4H73z"/>
	<path class="st0" d="M127,155.5h-14c-6.6,0-12-5.4-12-12v-14c0-6.6,5.4-12,12-12h14c6.6,0,12,5.4,12,12v14
		C139,150.1,133.6,155.5,127,155.5z M113,125.5c-2.2,0-4,1.8-4,4v14c0,2.2,1.8,4,4,4h14c2.2,0,4-1.8,4-4v-14c0-2.2-1.8-4-4-4H113z"
		/>
	<path class="st0" d="M87,115.5H73c-6.6,0-12-5.4-12-12v-14c0-6.6,5.4-12,12-12h14c6.6,0,12,5.4,12,12v14
		C99,110.1,93.6,115.5,87,115.5z M73,85.5c-2.2,0-4,1.8-4,4v14c0,2.2,1.8,4,4,4h14c2.2,0,4-1.8,4-4v-14c0-2.2-1.8-4-4-4H73z"/>
</g>
</svg>
